M48
; DRILL file {KiCad 8.0.2} date 2025-09-06T13:01:37-0300
; FORMAT={-:-/ absolute / inch / decimal}
; #@! TF.CreationDate,2025-09-06T13:01:37-03:00
; #@! TF.GenerationSoftware,Kicad,Pcbnew,8.0.2
; #@! TF.FileFunction,Plated,1,2,PTH
FMAT,2
INCH
; #@! TA.AperFunction,Plated,PTH,ViaDrill
T1C0.0118
; #@! TA.AperFunction,Plated,PTH,ComponentDrill
T2C0.0276
; #@! TA.AperFunction,Plated,PTH,ComponentDrill
T3C0.0315
; #@! TA.AperFunction,Plated,PTH,ComponentDrill
T4C0.0335
; #@! TA.AperFunction,Plated,PTH,ComponentDrill
T5C0.0354
; #@! TA.AperFunction,Plated,PTH,ComponentDrill
T6C0.0394
; #@! TA.AperFunction,Plated,PTH,ComponentDrill
T7C0.0402
; #@! TA.AperFunction,Plated,PTH,ComponentDrill
T8C0.0433
; #@! TA.AperFunction,Plated,PTH,ComponentDrill
T9C0.0469
%
G90
G05
T1
X3.1085Y-3.3494
X3.1085Y-3.6959
X4.612Y-4.5569
X4.86Y-4.5569
X5.0648Y-3.7892
X5.486Y-3.7892
X5.7774Y-4.2104
X5.7774Y-4.5648
T2
X3.651Y-5.6199
X3.6825Y-5.2537
X3.951Y-5.6199
X3.9825Y-5.2537
X4.123Y-3.1711
X4.123Y-3.273
X4.423Y-3.1711
X4.423Y-3.273
X5.0293Y-4.7215
X5.0293Y-5.0215
X5.9663Y-2.4699
X5.9663Y-2.7699
T3
X3.7144Y-4.9186
X3.7144Y-5.017
X3.9112Y-4.9186
X3.9112Y-5.017
X4.1081Y-4.9186
X4.1081Y-5.017
X4.1081Y-5.1514
X4.1081Y-5.2498
X4.9388Y-5.2183
X4.9388Y-5.3167
X5.4307Y-5.364
X5.5291Y-5.364
X5.8325Y-2.5687
X5.8325Y-2.6671
T4
X5.5293Y-4.923
X5.5293Y-5.023
X5.5293Y-5.123
T5
X3.3978Y-5.6159
X3.3994Y-5.2537
X3.4978Y-5.6159
X3.4994Y-5.2537
X3.747Y-3.0896
X3.7486Y-3.3494
X3.847Y-3.0896
X3.8486Y-3.3494
T6
X3.3959Y-3.5707
X3.3959Y-3.6707
X3.3959Y-3.7707
X3.3959Y-3.8707
X3.3994Y-2.4695
X3.3994Y-2.5695
X3.3994Y-2.6695
X3.3994Y-2.7695
X3.6199Y-1.3329
X3.6199Y-1.4329
X3.6199Y-1.5329
X3.6199Y-1.6329
X3.6199Y-1.7329
X3.6199Y-1.8329
X3.6199Y-1.9329
X3.6199Y-2.0329
X3.6199Y-2.1329
X3.6199Y-2.2329
X3.6199Y-2.4695
X3.6199Y-2.5695
X3.6199Y-2.6695
X3.6199Y-2.7695
X4.1045Y-3.503
X4.1081Y-3.7695
X4.9781Y-4.0923
X5.0781Y-4.0923
X5.1781Y-4.0923
X5.2781Y-4.0923
X5.5652Y-3.9715
X5.5652Y-4.2077
X6.1496Y-2.4724
X6.1496Y-2.5724
X6.1496Y-2.6724
T7
X4.703Y-1.6699
X4.703Y-1.7699
X4.703Y-1.8699
X4.703Y-1.9699
X4.703Y-2.0699
X4.703Y-2.1699
X4.703Y-2.2699
X4.703Y-2.3699
X4.703Y-2.4699
X4.703Y-2.5699
X4.703Y-2.6699
X4.703Y-2.7699
X4.703Y-2.8699
X4.703Y-2.9699
X4.703Y-3.0699
X4.703Y-3.1699
X4.703Y-3.2699
X4.703Y-3.3699
X4.703Y-3.4699
X4.703Y-3.5699
X5.403Y-1.6699
X5.403Y-1.7699
X5.403Y-1.8699
X5.403Y-1.9699
X5.403Y-2.0699
X5.403Y-2.1699
X5.403Y-2.2699
X5.403Y-2.3699
X5.403Y-2.4699
X5.403Y-2.5699
X5.403Y-2.6699
X5.403Y-2.7699
X5.403Y-2.8699
X5.403Y-2.9699
X5.403Y-3.0699
X5.403Y-3.1699
X5.403Y-3.2699
X5.403Y-3.3699
X5.403Y-3.4699
X5.403Y-3.5699
T8
X4.4073Y-4.9191
X4.4073Y-5.0191
X4.4073Y-5.1191
X4.7419Y-4.8183
X4.7419Y-5.2183
X5.1789Y-4.9199
X5.1789Y-5.0199
X5.1789Y-5.1199
X5.7459Y-1.8719
X5.7459Y-2.049
X5.9722Y-2.9289
X5.9722Y-3.1848
X6.0018Y-1.8719
X6.0018Y-2.049
X6.1494Y-2.9289
X6.1494Y-3.1848
T9
X3.3994Y-4.9186
X3.3994Y-5.0186
M30
