%TF.GenerationSoftware,KiCad,Pcbnew,8.0.2*%
%TF.CreationDate,2025-09-06T13:01:28-03:00*%
%TF.ProjectId,EGA,4547412e-6b69-4636-9164-5f7063625858,rev?*%
%TF.SameCoordinates,Original*%
%TF.FileFunction,Copper,L2,Bot*%
%TF.FilePolarity,Positive*%
%FSLAX46Y46*%
G04 Gerber Fmt 4.6, Leading zero omitted, Abs format (unit mm)*
G04 Created by KiCad (PCBNEW 8.0.2) date 2025-09-06 13:01:28*
%MOMM*%
%LPD*%
G01*
G04 APERTURE LIST*
G04 Aperture macros list*
%AMRoundRect*
0 Rectangle with rounded corners*
0 $1 Rounding radius*
0 $2 $3 $4 $5 $6 $7 $8 $9 X,Y pos of 4 corners*
0 Add a 4 corners polygon primitive as box body*
4,1,4,$2,$3,$4,$5,$6,$7,$8,$9,$2,$3,0*
0 Add four circle primitives for the rounded corners*
1,1,$1+$1,$2,$3*
1,1,$1+$1,$4,$5*
1,1,$1+$1,$6,$7*
1,1,$1+$1,$8,$9*
0 Add four rect primitives between the rounded corners*
20,1,$1+$1,$2,$3,$4,$5,0*
20,1,$1+$1,$4,$5,$6,$7,0*
20,1,$1+$1,$6,$7,$8,$9,0*
20,1,$1+$1,$8,$9,$2,$3,0*%
G04 Aperture macros list end*
%ADD10C,0.300000*%
%TA.AperFunction,NonConductor*%
%ADD11C,0.300000*%
%TD*%
%TA.AperFunction,ComponentPad*%
%ADD12R,1.700000X1.700000*%
%TD*%
%TA.AperFunction,ComponentPad*%
%ADD13O,1.700000X1.700000*%
%TD*%
%TA.AperFunction,ComponentPad*%
%ADD14R,2.000000X1.905000*%
%TD*%
%TA.AperFunction,ComponentPad*%
%ADD15O,2.000000X1.905000*%
%TD*%
%TA.AperFunction,ComponentPad*%
%ADD16C,1.600000*%
%TD*%
%TA.AperFunction,ComponentPad*%
%ADD17C,2.000000*%
%TD*%
%TA.AperFunction,ComponentPad*%
%ADD18C,1.400000*%
%TD*%
%TA.AperFunction,ComponentPad*%
%ADD19O,1.400000X1.400000*%
%TD*%
%TA.AperFunction,ComponentPad*%
%ADD20R,2.200000X2.200000*%
%TD*%
%TA.AperFunction,ComponentPad*%
%ADD21O,2.200000X2.200000*%
%TD*%
%TA.AperFunction,ComponentPad*%
%ADD22RoundRect,0.412500X0.412500X-0.412500X0.412500X0.412500X-0.412500X0.412500X-0.412500X-0.412500X0*%
%TD*%
%TA.AperFunction,ComponentPad*%
%ADD23C,1.650000*%
%TD*%
%TA.AperFunction,ComponentPad*%
%ADD24R,1.600000X1.600000*%
%TD*%
%TA.AperFunction,ComponentPad*%
%ADD25R,1.800000X1.800000*%
%TD*%
%TA.AperFunction,ComponentPad*%
%ADD26C,1.800000*%
%TD*%
%TA.AperFunction,ComponentPad*%
%ADD27RoundRect,0.250000X0.845000X-0.620000X0.845000X0.620000X-0.845000X0.620000X-0.845000X-0.620000X0*%
%TD*%
%TA.AperFunction,ComponentPad*%
%ADD28O,2.190000X1.740000*%
%TD*%
%TA.AperFunction,ViaPad*%
%ADD29C,0.600000*%
%TD*%
%TA.AperFunction,Conductor*%
%ADD30C,1.500000*%
%TD*%
G04 APERTURE END LIST*
D10*
D11*
X165090489Y-133400450D02*
X164876203Y-133471878D01*
X164876203Y-133471878D02*
X164804774Y-133543307D01*
X164804774Y-133543307D02*
X164733346Y-133686164D01*
X164733346Y-133686164D02*
X164733346Y-133900450D01*
X164733346Y-133900450D02*
X164804774Y-134043307D01*
X164804774Y-134043307D02*
X164876203Y-134114736D01*
X164876203Y-134114736D02*
X165019060Y-134186164D01*
X165019060Y-134186164D02*
X165590489Y-134186164D01*
X165590489Y-134186164D02*
X165590489Y-132686164D01*
X165590489Y-132686164D02*
X165090489Y-132686164D01*
X165090489Y-132686164D02*
X164947632Y-132757593D01*
X164947632Y-132757593D02*
X164876203Y-132829021D01*
X164876203Y-132829021D02*
X164804774Y-132971878D01*
X164804774Y-132971878D02*
X164804774Y-133114736D01*
X164804774Y-133114736D02*
X164876203Y-133257593D01*
X164876203Y-133257593D02*
X164947632Y-133329021D01*
X164947632Y-133329021D02*
X165090489Y-133400450D01*
X165090489Y-133400450D02*
X165590489Y-133400450D01*
X164090489Y-132686164D02*
X164090489Y-133900450D01*
X164090489Y-133900450D02*
X164019060Y-134043307D01*
X164019060Y-134043307D02*
X163947632Y-134114736D01*
X163947632Y-134114736D02*
X163804774Y-134186164D01*
X163804774Y-134186164D02*
X163519060Y-134186164D01*
X163519060Y-134186164D02*
X163376203Y-134114736D01*
X163376203Y-134114736D02*
X163304774Y-134043307D01*
X163304774Y-134043307D02*
X163233346Y-133900450D01*
X163233346Y-133900450D02*
X163233346Y-132686164D01*
X162590488Y-134114736D02*
X162376203Y-134186164D01*
X162376203Y-134186164D02*
X162019060Y-134186164D01*
X162019060Y-134186164D02*
X161876203Y-134114736D01*
X161876203Y-134114736D02*
X161804774Y-134043307D01*
X161804774Y-134043307D02*
X161733345Y-133900450D01*
X161733345Y-133900450D02*
X161733345Y-133757593D01*
X161733345Y-133757593D02*
X161804774Y-133614736D01*
X161804774Y-133614736D02*
X161876203Y-133543307D01*
X161876203Y-133543307D02*
X162019060Y-133471878D01*
X162019060Y-133471878D02*
X162304774Y-133400450D01*
X162304774Y-133400450D02*
X162447631Y-133329021D01*
X162447631Y-133329021D02*
X162519060Y-133257593D01*
X162519060Y-133257593D02*
X162590488Y-133114736D01*
X162590488Y-133114736D02*
X162590488Y-132971878D01*
X162590488Y-132971878D02*
X162519060Y-132829021D01*
X162519060Y-132829021D02*
X162447631Y-132757593D01*
X162447631Y-132757593D02*
X162304774Y-132686164D01*
X162304774Y-132686164D02*
X161947631Y-132686164D01*
X161947631Y-132686164D02*
X161733345Y-132757593D01*
X161304774Y-132686164D02*
X160447632Y-132686164D01*
X160876203Y-134186164D02*
X160876203Y-132686164D01*
X160019060Y-133757593D02*
X159304775Y-133757593D01*
X160161917Y-134186164D02*
X159661917Y-132686164D01*
X159661917Y-132686164D02*
X159161917Y-134186164D01*
X158661918Y-134186164D02*
X158661918Y-132686164D01*
X158661918Y-132686164D02*
X158161918Y-133757593D01*
X158161918Y-133757593D02*
X157661918Y-132686164D01*
X157661918Y-132686164D02*
X157661918Y-134186164D01*
X157019060Y-133757593D02*
X156304775Y-133757593D01*
X157161917Y-134186164D02*
X156661917Y-132686164D01*
X156661917Y-132686164D02*
X156161917Y-134186164D01*
X155661918Y-134186164D02*
X155661918Y-132686164D01*
X155661918Y-132686164D02*
X154804775Y-134186164D01*
X154804775Y-134186164D02*
X154804775Y-132686164D01*
X154304774Y-132686164D02*
X153447632Y-132686164D01*
X153876203Y-134186164D02*
X153876203Y-132686164D01*
X152947632Y-133400450D02*
X152447632Y-133400450D01*
X152233346Y-134186164D02*
X152947632Y-134186164D01*
X152947632Y-134186164D02*
X152947632Y-132686164D01*
X152947632Y-132686164D02*
X152233346Y-132686164D01*
X165590489Y-136601080D02*
X165590489Y-135101080D01*
X165590489Y-135101080D02*
X165019060Y-135101080D01*
X165019060Y-135101080D02*
X164876203Y-135172509D01*
X164876203Y-135172509D02*
X164804774Y-135243937D01*
X164804774Y-135243937D02*
X164733346Y-135386794D01*
X164733346Y-135386794D02*
X164733346Y-135601080D01*
X164733346Y-135601080D02*
X164804774Y-135743937D01*
X164804774Y-135743937D02*
X164876203Y-135815366D01*
X164876203Y-135815366D02*
X165019060Y-135886794D01*
X165019060Y-135886794D02*
X165590489Y-135886794D01*
X163804774Y-135101080D02*
X163519060Y-135101080D01*
X163519060Y-135101080D02*
X163376203Y-135172509D01*
X163376203Y-135172509D02*
X163233346Y-135315366D01*
X163233346Y-135315366D02*
X163161917Y-135601080D01*
X163161917Y-135601080D02*
X163161917Y-136101080D01*
X163161917Y-136101080D02*
X163233346Y-136386794D01*
X163233346Y-136386794D02*
X163376203Y-136529652D01*
X163376203Y-136529652D02*
X163519060Y-136601080D01*
X163519060Y-136601080D02*
X163804774Y-136601080D01*
X163804774Y-136601080D02*
X163947632Y-136529652D01*
X163947632Y-136529652D02*
X164090489Y-136386794D01*
X164090489Y-136386794D02*
X164161917Y-136101080D01*
X164161917Y-136101080D02*
X164161917Y-135601080D01*
X164161917Y-135601080D02*
X164090489Y-135315366D01*
X164090489Y-135315366D02*
X163947632Y-135172509D01*
X163947632Y-135172509D02*
X163804774Y-135101080D01*
X161661917Y-136601080D02*
X162161917Y-135886794D01*
X162519060Y-136601080D02*
X162519060Y-135101080D01*
X162519060Y-135101080D02*
X161947631Y-135101080D01*
X161947631Y-135101080D02*
X161804774Y-135172509D01*
X161804774Y-135172509D02*
X161733345Y-135243937D01*
X161733345Y-135243937D02*
X161661917Y-135386794D01*
X161661917Y-135386794D02*
X161661917Y-135601080D01*
X161661917Y-135601080D02*
X161733345Y-135743937D01*
X161733345Y-135743937D02*
X161804774Y-135815366D01*
X161804774Y-135815366D02*
X161947631Y-135886794D01*
X161947631Y-135886794D02*
X162519060Y-135886794D01*
X161233345Y-135101080D02*
X160376203Y-135101080D01*
X160804774Y-136601080D02*
X160804774Y-135101080D01*
X159947631Y-136172509D02*
X159233346Y-136172509D01*
X160090488Y-136601080D02*
X159590488Y-135101080D01*
X159590488Y-135101080D02*
X159090488Y-136601080D01*
X158661917Y-136529652D02*
X158447632Y-136601080D01*
X158447632Y-136601080D02*
X158090489Y-136601080D01*
X158090489Y-136601080D02*
X157947632Y-136529652D01*
X157947632Y-136529652D02*
X157876203Y-136458223D01*
X157876203Y-136458223D02*
X157804774Y-136315366D01*
X157804774Y-136315366D02*
X157804774Y-136172509D01*
X157804774Y-136172509D02*
X157876203Y-136029652D01*
X157876203Y-136029652D02*
X157947632Y-135958223D01*
X157947632Y-135958223D02*
X158090489Y-135886794D01*
X158090489Y-135886794D02*
X158376203Y-135815366D01*
X158376203Y-135815366D02*
X158519060Y-135743937D01*
X158519060Y-135743937D02*
X158590489Y-135672509D01*
X158590489Y-135672509D02*
X158661917Y-135529652D01*
X158661917Y-135529652D02*
X158661917Y-135386794D01*
X158661917Y-135386794D02*
X158590489Y-135243937D01*
X158590489Y-135243937D02*
X158519060Y-135172509D01*
X158519060Y-135172509D02*
X158376203Y-135101080D01*
X158376203Y-135101080D02*
X158019060Y-135101080D01*
X158019060Y-135101080D02*
X157804774Y-135172509D01*
X164876203Y-137515996D02*
X165590489Y-137515996D01*
X165590489Y-137515996D02*
X165661917Y-138230282D01*
X165661917Y-138230282D02*
X165590489Y-138158853D01*
X165590489Y-138158853D02*
X165447632Y-138087425D01*
X165447632Y-138087425D02*
X165090489Y-138087425D01*
X165090489Y-138087425D02*
X164947632Y-138158853D01*
X164947632Y-138158853D02*
X164876203Y-138230282D01*
X164876203Y-138230282D02*
X164804774Y-138373139D01*
X164804774Y-138373139D02*
X164804774Y-138730282D01*
X164804774Y-138730282D02*
X164876203Y-138873139D01*
X164876203Y-138873139D02*
X164947632Y-138944568D01*
X164947632Y-138944568D02*
X165090489Y-139015996D01*
X165090489Y-139015996D02*
X165447632Y-139015996D01*
X165447632Y-139015996D02*
X165590489Y-138944568D01*
X165590489Y-138944568D02*
X165661917Y-138873139D01*
X163947632Y-137515996D02*
X164090489Y-137587425D01*
X164090489Y-137587425D02*
X164161918Y-137730282D01*
X164161918Y-137730282D02*
X164090489Y-137873139D01*
X164090489Y-137873139D02*
X163947632Y-137944568D01*
X163947632Y-137944568D02*
X163804775Y-137873139D01*
X163804775Y-137873139D02*
X163733346Y-137730282D01*
X163733346Y-137730282D02*
X163804775Y-137587425D01*
X163804775Y-137587425D02*
X163947632Y-137515996D01*
X162233346Y-139015996D02*
X163090489Y-139015996D01*
X162661918Y-139015996D02*
X162661918Y-137515996D01*
X162661918Y-137515996D02*
X162804775Y-137730282D01*
X162804775Y-137730282D02*
X162947632Y-137873139D01*
X162947632Y-137873139D02*
X163090489Y-137944568D01*
X160804775Y-139015996D02*
X161661918Y-139015996D01*
X161233347Y-139015996D02*
X161233347Y-137515996D01*
X161233347Y-137515996D02*
X161376204Y-137730282D01*
X161376204Y-137730282D02*
X161519061Y-137873139D01*
X161519061Y-137873139D02*
X161661918Y-137944568D01*
X165804774Y-139930912D02*
X164947632Y-139930912D01*
X165376203Y-141430912D02*
X165376203Y-139930912D01*
X164447632Y-141430912D02*
X164447632Y-139930912D01*
X164447632Y-139930912D02*
X164090489Y-139930912D01*
X164090489Y-139930912D02*
X163876203Y-140002341D01*
X163876203Y-140002341D02*
X163733346Y-140145198D01*
X163733346Y-140145198D02*
X163661917Y-140288055D01*
X163661917Y-140288055D02*
X163590489Y-140573769D01*
X163590489Y-140573769D02*
X163590489Y-140788055D01*
X163590489Y-140788055D02*
X163661917Y-141073769D01*
X163661917Y-141073769D02*
X163733346Y-141216626D01*
X163733346Y-141216626D02*
X163876203Y-141359484D01*
X163876203Y-141359484D02*
X164090489Y-141430912D01*
X164090489Y-141430912D02*
X164447632Y-141430912D01*
X163090489Y-139930912D02*
X162161917Y-139930912D01*
X162161917Y-139930912D02*
X162661917Y-140502341D01*
X162661917Y-140502341D02*
X162447632Y-140502341D01*
X162447632Y-140502341D02*
X162304775Y-140573769D01*
X162304775Y-140573769D02*
X162233346Y-140645198D01*
X162233346Y-140645198D02*
X162161917Y-140788055D01*
X162161917Y-140788055D02*
X162161917Y-141145198D01*
X162161917Y-141145198D02*
X162233346Y-141288055D01*
X162233346Y-141288055D02*
X162304775Y-141359484D01*
X162304775Y-141359484D02*
X162447632Y-141430912D01*
X162447632Y-141430912D02*
X162876203Y-141430912D01*
X162876203Y-141430912D02*
X163019060Y-141359484D01*
X163019060Y-141359484D02*
X163090489Y-141288055D01*
X165590489Y-142345828D02*
X165590489Y-143560114D01*
X165590489Y-143560114D02*
X165519060Y-143702971D01*
X165519060Y-143702971D02*
X165447632Y-143774400D01*
X165447632Y-143774400D02*
X165304774Y-143845828D01*
X165304774Y-143845828D02*
X165019060Y-143845828D01*
X165019060Y-143845828D02*
X164876203Y-143774400D01*
X164876203Y-143774400D02*
X164804774Y-143702971D01*
X164804774Y-143702971D02*
X164733346Y-143560114D01*
X164733346Y-143560114D02*
X164733346Y-142345828D01*
X164233345Y-142345828D02*
X163376203Y-142345828D01*
X163804774Y-143845828D02*
X163804774Y-142345828D01*
X162876203Y-143845828D02*
X162876203Y-142345828D01*
X162876203Y-142345828D02*
X162019060Y-143845828D01*
X162019060Y-143845828D02*
X162019060Y-142345828D01*
X161304774Y-143274400D02*
X160161917Y-143274400D01*
X158947631Y-143060114D02*
X159447631Y-143060114D01*
X159447631Y-143845828D02*
X159447631Y-142345828D01*
X159447631Y-142345828D02*
X158733345Y-142345828D01*
X157304774Y-143845828D02*
X157804774Y-143131542D01*
X158161917Y-143845828D02*
X158161917Y-142345828D01*
X158161917Y-142345828D02*
X157590488Y-142345828D01*
X157590488Y-142345828D02*
X157447631Y-142417257D01*
X157447631Y-142417257D02*
X157376202Y-142488685D01*
X157376202Y-142488685D02*
X157304774Y-142631542D01*
X157304774Y-142631542D02*
X157304774Y-142845828D01*
X157304774Y-142845828D02*
X157376202Y-142988685D01*
X157376202Y-142988685D02*
X157447631Y-143060114D01*
X157447631Y-143060114D02*
X157590488Y-143131542D01*
X157590488Y-143131542D02*
X158161917Y-143131542D01*
X156733345Y-143417257D02*
X156019060Y-143417257D01*
X156876202Y-143845828D02*
X156376202Y-142345828D01*
X156376202Y-142345828D02*
X155876202Y-143845828D01*
D12*
%TO.P,J2,1,Pin_1*%
%TO.N,5V*%
X86255000Y-90695000D03*
D13*
%TO.P,J2,2,Pin_2*%
%TO.N,TRIG*%
X86255000Y-93235000D03*
%TO.P,J2,3,Pin_3*%
%TO.N,ECHO*%
X86255000Y-95775000D03*
%TO.P,J2,4,Pin_4*%
%TO.N,GND*%
X86255000Y-98315000D03*
%TD*%
D14*
%TO.P,U1,1,VI*%
%TO.N,VCC*%
X111945000Y-124945000D03*
D15*
%TO.P,U1,2,GND*%
%TO.N,GND*%
X111945000Y-127485000D03*
%TO.P,U1,3,VO*%
%TO.N,5V*%
X111945000Y-130025000D03*
%TD*%
D12*
%TO.P,J10,1,Pin_1*%
%TO.N,TRIG*%
X104255000Y-88975000D03*
%TD*%
D14*
%TO.P,U2,1,ADJ*%
%TO.N,Net-(U2-ADJ)*%
X131545000Y-124965000D03*
D15*
%TO.P,U2,2,VO*%
%TO.N,3.3V*%
X131545000Y-127505000D03*
%TO.P,U2,3,VI*%
%TO.N,5V*%
X131545000Y-130045000D03*
%TD*%
D12*
%TO.P,J3,1,Pin_1*%
%TO.N,5V*%
X86345000Y-62725000D03*
D13*
%TO.P,J3,2,Pin_2*%
%TO.N,GND*%
X86345000Y-65265000D03*
%TO.P,J3,3,Pin_3*%
%TO.N,SDA_0*%
X86345000Y-67805000D03*
%TO.P,J3,4,Pin_4*%
%TO.N,SCL_0*%
X86345000Y-70345000D03*
%TD*%
D12*
%TO.P,J6,1,Pin_1*%
%TO.N,GND*%
X126445000Y-103945000D03*
D13*
%TO.P,J6,2,Pin_2*%
%TO.N,VCC*%
X128985000Y-103945000D03*
%TO.P,J6,3,Pin_3*%
%TO.N,PIN_RPM*%
X131525000Y-103945000D03*
%TO.P,J6,4,Pin_4*%
%TO.N,PIN_PWM*%
X134065000Y-103945000D03*
%TD*%
D16*
%TO.P,C4,1*%
%TO.N,5V*%
X125445000Y-132545000D03*
%TO.P,C4,2*%
%TO.N,GND*%
X125445000Y-135045000D03*
%TD*%
%TO.P,C3,1*%
%TO.N,5V*%
X104345000Y-133345000D03*
%TO.P,C3,2*%
%TO.N,GND*%
X104345000Y-130845000D03*
%TD*%
D17*
%TO.P,SW1,1,1*%
%TO.N,PIN_PAGINA*%
X151695000Y-80895000D03*
X151695000Y-74395000D03*
%TO.P,SW1,2,2*%
%TO.N,GND*%
X156195000Y-80895000D03*
X156195000Y-74395000D03*
%TD*%
D18*
%TO.P,R5,1*%
%TO.N,3.3V*%
X100355000Y-142745000D03*
D19*
%TO.P,R5,2*%
%TO.N,Net-(D3-A)*%
X92735000Y-142745000D03*
%TD*%
D20*
%TO.P,D1,1,K*%
%TO.N,VCC*%
X120445000Y-122385000D03*
D21*
%TO.P,D1,2,A*%
%TO.N,5V*%
X120445000Y-132545000D03*
%TD*%
D18*
%TO.P,R4,1*%
%TO.N,3.3V*%
X127745000Y-127545000D03*
D19*
%TO.P,R4,2*%
%TO.N,Net-(U2-ADJ)*%
X127745000Y-119925000D03*
%TD*%
D22*
%TO.P,RV2,1,1*%
%TO.N,GND*%
X140445000Y-130125000D03*
D23*
%TO.P,RV2,2,2*%
X140445000Y-127585000D03*
%TO.P,RV2,3,3*%
%TO.N,Net-(U2-ADJ)*%
X140445000Y-125045000D03*
%TD*%
D17*
%TO.P,SW2,1,1*%
%TO.N,Net-(U3-RUN)*%
X152445000Y-52045000D03*
X145945000Y-52045000D03*
%TO.P,SW2,2,2*%
%TO.N,Net-(SW2-Pad2)*%
X152445000Y-47545000D03*
X145945000Y-47545000D03*
%TD*%
D12*
%TO.P,J7,1,Pin_1*%
%TO.N,5V*%
X91945000Y-33855000D03*
D13*
%TO.P,J7,2,Pin_2*%
%TO.N,RX{slash}SPI0*%
X91945000Y-36395000D03*
%TO.P,J7,3,Pin_3*%
%TO.N,CSn{slash}SPI0*%
X91945000Y-38935000D03*
%TO.P,J7,4,Pin_4*%
%TO.N,GND*%
X91945000Y-41475000D03*
%TO.P,J7,5,Pin_5*%
%TO.N,SCK{slash}SPI0*%
X91945000Y-44015000D03*
%TO.P,J7,6,Pin_6*%
%TO.N,TX{slash}SPI0*%
X91945000Y-46555000D03*
%TO.P,J7,7,Pin_7*%
%TO.N,UART1_TX*%
X91945000Y-49095000D03*
%TO.P,J7,8,Pin_8*%
%TO.N,UART1_RX*%
X91945000Y-51635000D03*
%TO.P,J7,9,Pin_9*%
%TO.N,SDA_1*%
X91945000Y-54175000D03*
%TO.P,J7,10,Pin_10*%
%TO.N,SCL_1*%
X91945000Y-56715000D03*
%TD*%
%TO.P,U3,1,GPIO0*%
%TO.N,RX{slash}SPI0*%
X119455000Y-42415000D03*
%TO.P,U3,2,GPIO1*%
%TO.N,CSn{slash}SPI0*%
X119455000Y-44955000D03*
D12*
%TO.P,U3,3,GND*%
%TO.N,GND*%
X119455000Y-47495000D03*
D13*
%TO.P,U3,4,GPIO2*%
%TO.N,SCK{slash}SPI0*%
X119455000Y-50035000D03*
%TO.P,U3,5,GPIO3*%
%TO.N,TX{slash}SPI0*%
X119455000Y-52575000D03*
%TO.P,U3,6,GPIO4*%
%TO.N,UART1_TX*%
X119455000Y-55115000D03*
%TO.P,U3,7,GPIO5*%
%TO.N,UART1_RX*%
X119455000Y-57655000D03*
D12*
%TO.P,U3,8,GND*%
%TO.N,unconnected-(U3-GND-Pad8)_0*%
X119455000Y-60195000D03*
D13*
%TO.P,U3,9,GPIO6*%
%TO.N,SDA_1*%
X119455000Y-62735000D03*
%TO.P,U3,10,GPIO7*%
%TO.N,SCL_1*%
X119455000Y-65275000D03*
%TO.P,U3,11,GPIO8*%
%TO.N,SDA_0*%
X119455000Y-67815000D03*
%TO.P,U3,12,GPIO9*%
%TO.N,SCL_0*%
X119455000Y-70355000D03*
D12*
%TO.P,U3,13,GND*%
%TO.N,unconnected-(U3-GND-Pad13)*%
X119455000Y-72895000D03*
D13*
%TO.P,U3,14,GPIO10*%
%TO.N,PIN_PWM*%
X119455000Y-75435000D03*
%TO.P,U3,15,GPIO11*%
%TO.N,PIN_RPM*%
X119455000Y-77975000D03*
%TO.P,U3,16,GPIO12*%
%TO.N,MAX_ALTURA*%
X119455000Y-80515000D03*
%TO.P,U3,17,GPIO13*%
%TO.N,MIN_ALTURA*%
X119455000Y-83055000D03*
D12*
%TO.P,U3,18,GND*%
%TO.N,unconnected-(U3-GND-Pad18)*%
X119455000Y-85595000D03*
D13*
%TO.P,U3,19,GPIO14*%
%TO.N,TRIG*%
X119455000Y-88135000D03*
%TO.P,U3,20,GPIO15*%
%TO.N,ECHO*%
X119455000Y-90675000D03*
%TO.P,U3,21,GPIO16*%
%TO.N,unconnected-(U3-GPIO16-Pad21)_0*%
X137235000Y-90675000D03*
%TO.P,U3,22,GPIO17*%
%TO.N,unconnected-(U3-GPIO17-Pad22)*%
X137235000Y-88135000D03*
D12*
%TO.P,U3,23,GND*%
%TO.N,unconnected-(U3-GND-Pad23)*%
X137235000Y-85595000D03*
D13*
%TO.P,U3,24,GPIO18*%
%TO.N,PIN_PAGINA*%
X137235000Y-83055000D03*
%TO.P,U3,25,GPIO19*%
%TO.N,unconnected-(U3-GPIO19-Pad25)_0*%
X137235000Y-80515000D03*
%TO.P,U3,26,GPIO20*%
%TO.N,unconnected-(U3-GPIO20-Pad26)_0*%
X137235000Y-77975000D03*
%TO.P,U3,27,GPIO21*%
%TO.N,unconnected-(U3-GPIO21-Pad27)*%
X137235000Y-75435000D03*
D12*
%TO.P,U3,28,GND*%
%TO.N,unconnected-(U3-GND-Pad28)_0*%
X137235000Y-72895000D03*
D13*
%TO.P,U3,29,GPIO22*%
%TO.N,unconnected-(U3-GPIO22-Pad29)_0*%
X137235000Y-70355000D03*
%TO.P,U3,30,RUN*%
%TO.N,Net-(U3-RUN)*%
X137235000Y-67815000D03*
%TO.P,U3,31,GPIO26_ADC0*%
%TO.N,PIN_ADC*%
X137235000Y-65275000D03*
%TO.P,U3,32,GPIO27_ADC1*%
%TO.N,unconnected-(U3-GPIO27_ADC1-Pad32)_0*%
X137235000Y-62735000D03*
D12*
%TO.P,U3,33,AGND*%
%TO.N,unconnected-(U3-AGND-Pad33)*%
X137235000Y-60195000D03*
D13*
%TO.P,U3,34,GPIO28_ADC2*%
%TO.N,unconnected-(U3-GPIO28_ADC2-Pad34)*%
X137235000Y-57655000D03*
%TO.P,U3,35,ADC_VREF*%
%TO.N,unconnected-(U3-ADC_VREF-Pad35)*%
X137235000Y-55115000D03*
%TO.P,U3,36,3V3*%
%TO.N,unconnected-(U3-3V3-Pad36)_0*%
X137235000Y-52575000D03*
%TO.P,U3,37,3V3_EN*%
%TO.N,unconnected-(U3-3V3_EN-Pad37)_0*%
X137235000Y-50035000D03*
D12*
%TO.P,U3,38,GND*%
%TO.N,Net-(SW2-Pad2)*%
X137235000Y-47495000D03*
D13*
%TO.P,U3,39,VSYS*%
%TO.N,5V*%
X137235000Y-44955000D03*
%TO.P,U3,40,VBUS*%
%TO.N,unconnected-(U3-VBUS-Pad40)*%
X137235000Y-42415000D03*
%TD*%
D24*
%TO.P,C5,1*%
%TO.N,3.3V*%
X137939888Y-136245000D03*
D16*
%TO.P,C5,2*%
%TO.N,GND*%
X140439888Y-136245000D03*
%TD*%
D25*
%TO.P,D5,1,K*%
%TO.N,GND*%
X95175000Y-78475000D03*
D26*
%TO.P,D5,2,A*%
%TO.N,Net-(D5-A)*%
X97715000Y-78475000D03*
%TD*%
D12*
%TO.P,J5,1,Pin_1*%
%TO.N,PIN_PWM*%
X141355000Y-100875000D03*
%TD*%
D25*
%TO.P,D2,1,K*%
%TO.N,GND*%
X86345000Y-133445000D03*
D26*
%TO.P,D2,2,A*%
%TO.N,Net-(D2-A)*%
X88885000Y-133445000D03*
%TD*%
D12*
%TO.P,J9,1,Pin_1*%
%TO.N,ECHO*%
X104345000Y-95745000D03*
%TD*%
D18*
%TO.P,R7,1*%
%TO.N,MAX_ALTURA*%
X112345000Y-80545000D03*
D19*
%TO.P,R7,2*%
%TO.N,Net-(D5-A)*%
X104725000Y-80545000D03*
%TD*%
D12*
%TO.P,J8,1,Pin_1*%
%TO.N,PIN_RPM*%
X141355000Y-106875000D03*
%TD*%
D16*
%TO.P,C1,1*%
%TO.N,VCC*%
X99345000Y-124932500D03*
%TO.P,C1,2*%
%TO.N,GND*%
X99345000Y-127432500D03*
%TD*%
D27*
%TO.P,J1,1,Pin_1*%
%TO.N,GND*%
X86345000Y-127472500D03*
D28*
%TO.P,J1,2,Pin_2*%
%TO.N,VCC*%
X86345000Y-124932500D03*
%TD*%
D16*
%TO.P,C7,1*%
%TO.N,VCC*%
X94345000Y-124932500D03*
%TO.P,C7,2*%
%TO.N,GND*%
X94345000Y-127432500D03*
%TD*%
D12*
%TO.P,J4,1,Pin_1*%
%TO.N,5V*%
X91945000Y-62725000D03*
D13*
%TO.P,J4,2,Pin_2*%
%TO.N,GND*%
X91945000Y-65265000D03*
%TO.P,J4,3,Pin_3*%
%TO.N,SDA_0*%
X91945000Y-67805000D03*
%TO.P,J4,4,Pin_4*%
%TO.N,SCL_0*%
X91945000Y-70345000D03*
%TD*%
D25*
%TO.P,D3,1,K*%
%TO.N,GND*%
X86305000Y-142645000D03*
D26*
%TO.P,D3,2,A*%
%TO.N,Net-(D3-A)*%
X88845000Y-142645000D03*
%TD*%
D25*
%TO.P,D4,1,K*%
%TO.N,GND*%
X95215000Y-85075000D03*
D26*
%TO.P,D4,2,A*%
%TO.N,Net-(D4-A)*%
X97755000Y-85075000D03*
%TD*%
D12*
%TO.P,J11,1,Pin_1*%
%TO.N,GND*%
X156200000Y-67880000D03*
D13*
%TO.P,J11,2,Pin_2*%
%TO.N,PIN_ADC*%
X156200000Y-65340000D03*
%TO.P,J11,3,Pin_3*%
%TO.N,3.3V*%
X156200000Y-62800000D03*
%TD*%
D16*
%TO.P,C6,1*%
%TO.N,VCC*%
X104345000Y-124932500D03*
%TO.P,C6,2*%
%TO.N,GND*%
X104345000Y-127432500D03*
%TD*%
D18*
%TO.P,R6,1*%
%TO.N,MIN_ALTURA*%
X112345000Y-83135000D03*
D19*
%TO.P,R6,2*%
%TO.N,Net-(D4-A)*%
X104725000Y-83135000D03*
%TD*%
D16*
%TO.P,C2,1*%
%TO.N,PIN_ADC*%
X148145000Y-65245000D03*
%TO.P,C2,2*%
%TO.N,GND*%
X148145000Y-67745000D03*
%TD*%
D18*
%TO.P,R3,1*%
%TO.N,5V*%
X101155000Y-133445000D03*
D19*
%TO.P,R3,2*%
%TO.N,Net-(D2-A)*%
X93535000Y-133445000D03*
%TD*%
D18*
%TO.P,R8,1*%
%TO.N,3.3V*%
X151545000Y-62735000D03*
D19*
%TO.P,R8,2*%
%TO.N,PIN_PAGINA*%
X151545000Y-70355000D03*
%TD*%
D29*
%TO.N,GND*%
X146745000Y-106945000D03*
X78955000Y-93875000D03*
X78955000Y-85075000D03*
X146745000Y-115945000D03*
X139345000Y-96245000D03*
X128645000Y-96245000D03*
%TO.N,5V*%
X123445000Y-115745000D03*
X117145000Y-115745000D03*
%TD*%
D30*
%TO.N,GND*%
X125445000Y-135045000D02*
X125445000Y-136645000D01*
X86357500Y-127485000D02*
X86345000Y-127472500D01*
X126405000Y-98315000D02*
X126445000Y-98275000D01*
X109775000Y-41475000D02*
X111695000Y-43395000D01*
X86305000Y-133485000D02*
X86345000Y-133445000D01*
X83265000Y-65265000D02*
X86345000Y-65265000D01*
X125445000Y-136645000D02*
X123945000Y-138145000D01*
X111945000Y-127485000D02*
X86357500Y-127485000D01*
X146745000Y-106945000D02*
X146745000Y-96255000D01*
X111695000Y-46145000D02*
X113045000Y-47495000D01*
X146745000Y-96255000D02*
X146755000Y-96245000D01*
X139845000Y-147945000D02*
X87545000Y-147945000D01*
X91945000Y-65265000D02*
X94325000Y-65265000D01*
X126445000Y-98275000D02*
X126445000Y-103945000D01*
X111695000Y-43395000D02*
X111695000Y-46145000D01*
X86225000Y-81345000D02*
X95145000Y-81345000D01*
X81055000Y-76175000D02*
X81055000Y-66575000D01*
X140445000Y-127585000D02*
X140445000Y-130125000D01*
X78955000Y-95275000D02*
X78955000Y-93875000D01*
X85945000Y-41395000D02*
X86025000Y-41475000D01*
X91945000Y-41475000D02*
X109775000Y-41475000D01*
X91945000Y-65265000D02*
X86345000Y-65265000D01*
X148145000Y-67745000D02*
X156065000Y-67745000D01*
X146745000Y-115945000D02*
X146745000Y-127345000D01*
X86225000Y-81345000D02*
X81055000Y-76175000D01*
X140439888Y-136245000D02*
X140439888Y-147350112D01*
X143965000Y-130125000D02*
X140445000Y-130125000D01*
X86305000Y-146705000D02*
X86305000Y-142645000D01*
X140445000Y-130125000D02*
X140445000Y-136239888D01*
X83255000Y-65275000D02*
X83265000Y-65265000D01*
X81995000Y-98315000D02*
X78955000Y-95275000D01*
X94325000Y-65265000D02*
X95945000Y-63645000D01*
X81055000Y-66575000D02*
X82355000Y-65275000D01*
X95215000Y-78515000D02*
X95175000Y-78475000D01*
X87545000Y-147945000D02*
X86305000Y-146705000D01*
X86305000Y-138145000D02*
X86305000Y-133485000D01*
X83695000Y-58395000D02*
X83695000Y-43645000D01*
X94445000Y-59145000D02*
X84445000Y-59145000D01*
X139345000Y-96245000D02*
X146755000Y-96245000D01*
X86305000Y-142645000D02*
X86305000Y-138145000D01*
X127685000Y-96245000D02*
X126445000Y-97485000D01*
X86025000Y-41475000D02*
X91945000Y-41475000D01*
X123945000Y-138145000D02*
X86305000Y-138145000D01*
X140439888Y-147350112D02*
X139845000Y-147945000D01*
X95945000Y-63645000D02*
X95945000Y-60645000D01*
X95215000Y-85075000D02*
X95215000Y-81275000D01*
X83695000Y-43645000D02*
X85945000Y-41395000D01*
X156195000Y-74395000D02*
X156195000Y-80895000D01*
X86255000Y-98315000D02*
X81995000Y-98315000D01*
X95145000Y-81345000D02*
X95215000Y-81275000D01*
X104345000Y-127432500D02*
X104345000Y-130845000D01*
X146745000Y-127345000D02*
X143965000Y-130125000D01*
X95215000Y-85075000D02*
X78955000Y-85075000D01*
X84445000Y-59145000D02*
X83695000Y-58395000D01*
X146755000Y-96245000D02*
X152945000Y-96245000D01*
X95945000Y-60645000D02*
X94445000Y-59145000D01*
X140445000Y-136239888D02*
X140439888Y-136245000D01*
X95215000Y-81275000D02*
X95215000Y-78515000D01*
X126445000Y-97485000D02*
X126445000Y-98275000D01*
X156195000Y-92995000D02*
X156195000Y-80895000D01*
X82355000Y-65275000D02*
X83255000Y-65275000D01*
X156065000Y-67745000D02*
X156200000Y-67880000D01*
X156195000Y-67885000D02*
X156200000Y-67880000D01*
X156195000Y-74395000D02*
X156195000Y-67885000D01*
X86345000Y-127472500D02*
X86345000Y-133445000D01*
X86255000Y-98315000D02*
X126405000Y-98315000D01*
X113045000Y-47495000D02*
X119455000Y-47495000D01*
X152945000Y-96245000D02*
X156195000Y-92995000D01*
X128645000Y-96245000D02*
X127685000Y-96245000D01*
%TO.N,PIN_ADC*%
X148240000Y-65340000D02*
X148145000Y-65245000D01*
X137235000Y-65275000D02*
X141515000Y-65275000D01*
X154745000Y-54645000D02*
X148145000Y-61245000D01*
X143345000Y-51545000D02*
X145245000Y-49645000D01*
X145245000Y-49645000D02*
X154745000Y-49645000D01*
X143345000Y-63445000D02*
X143345000Y-51545000D01*
X141515000Y-65275000D02*
X143345000Y-63445000D01*
X148145000Y-61245000D02*
X148145000Y-65245000D01*
X156200000Y-65340000D02*
X148240000Y-65340000D01*
X154745000Y-49645000D02*
X154745000Y-54645000D01*
%TO.N,5V*%
X123445000Y-115745000D02*
X123445000Y-129745000D01*
X120445000Y-130545000D02*
X120445000Y-132545000D01*
X71355000Y-111975000D02*
X71355000Y-90375000D01*
X86255000Y-90695000D02*
X71675000Y-90695000D01*
X117145000Y-115745000D02*
X75125000Y-115745000D01*
X75125000Y-115745000D02*
X71355000Y-111975000D01*
X71605000Y-62725000D02*
X71355000Y-62475000D01*
X104345000Y-133345000D02*
X101255000Y-133345000D01*
X101255000Y-133345000D02*
X101155000Y-133445000D01*
X86345000Y-62725000D02*
X71605000Y-62725000D01*
X123745000Y-130045000D02*
X111965000Y-130045000D01*
X110445000Y-133345000D02*
X104345000Y-133345000D01*
X91945000Y-62725000D02*
X86345000Y-62725000D01*
X111965000Y-130045000D02*
X111945000Y-130025000D01*
X134255000Y-44955000D02*
X123155000Y-33855000D01*
X119925000Y-130025000D02*
X120445000Y-130545000D01*
X91945000Y-33855000D02*
X72985000Y-33855000D01*
X71355000Y-90375000D02*
X71355000Y-62475000D01*
X72985000Y-33855000D02*
X71355000Y-35485000D01*
X111945000Y-130025000D02*
X119925000Y-130025000D01*
X71355000Y-35485000D02*
X71355000Y-62475000D01*
X111945000Y-130025000D02*
X111945000Y-131845000D01*
X123155000Y-33855000D02*
X91945000Y-33855000D01*
X137235000Y-44955000D02*
X134255000Y-44955000D01*
X111945000Y-131845000D02*
X110445000Y-133345000D01*
X71675000Y-90695000D02*
X71355000Y-90375000D01*
X123445000Y-129745000D02*
X123745000Y-130045000D01*
X125445000Y-132545000D02*
X125445000Y-130045000D01*
X125445000Y-130045000D02*
X123745000Y-130045000D01*
X131545000Y-130045000D02*
X125445000Y-130045000D01*
%TO.N,3.3V*%
X127045000Y-127545000D02*
X127745000Y-127545000D01*
X131545000Y-127505000D02*
X135805000Y-127505000D01*
X137845000Y-129545000D02*
X137845000Y-130445000D01*
X125645000Y-114145000D02*
X125645000Y-126145000D01*
X136545000Y-142745000D02*
X137945000Y-141345000D01*
X100355000Y-142745000D02*
X136545000Y-142745000D01*
X151610000Y-62800000D02*
X151545000Y-62735000D01*
X137945000Y-141345000D02*
X137939888Y-141339888D01*
X163945000Y-107845000D02*
X163945000Y-69342919D01*
X161145000Y-110645000D02*
X129145000Y-110645000D01*
X127785000Y-127505000D02*
X127745000Y-127545000D01*
X135805000Y-127505000D02*
X137845000Y-129545000D01*
X125645000Y-126145000D02*
X127045000Y-127545000D01*
X137939888Y-141339888D02*
X137939888Y-136245000D01*
X137939888Y-130539888D02*
X137939888Y-136245000D01*
X163945000Y-69342919D02*
X157402081Y-62800000D01*
X156200000Y-62800000D02*
X151610000Y-62800000D01*
X157402081Y-62800000D02*
X156200000Y-62800000D01*
X137845000Y-130445000D02*
X137939888Y-130539888D01*
X129145000Y-110645000D02*
X125645000Y-114145000D01*
X131545000Y-127505000D02*
X127785000Y-127505000D01*
X163945000Y-107845000D02*
X161145000Y-110645000D01*
%TO.N,VCC*%
X128985000Y-105905000D02*
X128985000Y-103945000D01*
X120445000Y-124445000D02*
X120445000Y-122385000D01*
X111945000Y-124945000D02*
X119945000Y-124945000D01*
X120445000Y-122385000D02*
X120445000Y-114445000D01*
X86345000Y-124932500D02*
X111932500Y-124932500D01*
X111932500Y-124932500D02*
X111945000Y-124945000D01*
X119945000Y-124945000D02*
X120445000Y-124445000D01*
X120445000Y-114445000D02*
X128985000Y-105905000D01*
%TO.N,Net-(D2-A)*%
X93535000Y-133445000D02*
X88885000Y-133445000D01*
%TO.N,Net-(D3-A)*%
X92735000Y-142745000D02*
X88945000Y-142745000D01*
X88945000Y-142745000D02*
X88845000Y-142645000D01*
%TO.N,Net-(D4-A)*%
X99695000Y-83135000D02*
X97755000Y-85075000D01*
X104725000Y-83135000D02*
X99695000Y-83135000D01*
%TO.N,Net-(D5-A)*%
X104725000Y-80545000D02*
X99785000Y-80545000D01*
X99785000Y-80545000D02*
X97715000Y-78475000D01*
%TO.N,TRIG*%
X112255000Y-93275000D02*
X112215000Y-93235000D01*
X104255000Y-93235000D02*
X86255000Y-93235000D01*
X112215000Y-93235000D02*
X104255000Y-93235000D01*
X117395000Y-88135000D02*
X112255000Y-93275000D01*
X104255000Y-88975000D02*
X104255000Y-93235000D01*
X119455000Y-88135000D02*
X117395000Y-88135000D01*
%TO.N,SCL_0*%
X86355000Y-70355000D02*
X86345000Y-70345000D01*
X119455000Y-70355000D02*
X86355000Y-70355000D01*
%TO.N,SDA_0*%
X86355000Y-67815000D02*
X86345000Y-67805000D01*
X119455000Y-67815000D02*
X86355000Y-67815000D01*
%TO.N,UART1_TX*%
X101895000Y-49095000D02*
X107915000Y-55115000D01*
X107915000Y-55115000D02*
X119455000Y-55115000D01*
X91945000Y-49095000D02*
X101895000Y-49095000D01*
%TO.N,UART1_RX*%
X119255000Y-57675000D02*
X119275000Y-57655000D01*
X106705000Y-57655000D02*
X119455000Y-57655000D01*
X91945000Y-51635000D02*
X100685000Y-51635000D01*
X100685000Y-51635000D02*
X106705000Y-57655000D01*
X119275000Y-57655000D02*
X119455000Y-57655000D01*
%TO.N,PIN_PWM*%
X134065000Y-82565000D02*
X126935000Y-75435000D01*
X134365000Y-100875000D02*
X134065000Y-100575000D01*
X141355000Y-100875000D02*
X134365000Y-100875000D01*
X126935000Y-75435000D02*
X119455000Y-75435000D01*
X134065000Y-103945000D02*
X134065000Y-100575000D01*
X134065000Y-100575000D02*
X134065000Y-82565000D01*
%TO.N,Net-(SW2-Pad2)*%
X137285000Y-47545000D02*
X137235000Y-47495000D01*
X137285000Y-47445000D02*
X137235000Y-47495000D01*
X152445000Y-47545000D02*
X137285000Y-47545000D01*
%TO.N,ECHO*%
X104345000Y-95745000D02*
X105915000Y-95745000D01*
X105945000Y-95775000D02*
X86255000Y-95775000D01*
X114355000Y-95775000D02*
X105945000Y-95775000D01*
X105915000Y-95745000D02*
X105945000Y-95775000D01*
X86275000Y-95755000D02*
X86255000Y-95775000D01*
X119455000Y-90675000D02*
X114355000Y-95775000D01*
%TO.N,Net-(U2-ADJ)*%
X131625000Y-125045000D02*
X131545000Y-124965000D01*
X136045000Y-125045000D02*
X131625000Y-125045000D01*
X136045000Y-121445000D02*
X136045000Y-125045000D01*
X134525000Y-119925000D02*
X136045000Y-121445000D01*
X140445000Y-125045000D02*
X131625000Y-125045000D01*
X127745000Y-119925000D02*
X134525000Y-119925000D01*
%TO.N,MIN_ALTURA*%
X112425000Y-83055000D02*
X112345000Y-83135000D01*
X119455000Y-83055000D02*
X112425000Y-83055000D01*
%TO.N,MAX_ALTURA*%
X119455000Y-80515000D02*
X112375000Y-80515000D01*
X112375000Y-80515000D02*
X112345000Y-80545000D01*
%TO.N,PIN_PAGINA*%
X151145000Y-83055000D02*
X151800000Y-82400000D01*
X151545000Y-74245000D02*
X151695000Y-74395000D01*
X151545000Y-80745000D02*
X151695000Y-80895000D01*
X137235000Y-83055000D02*
X151145000Y-83055000D01*
X151545000Y-70355000D02*
X151545000Y-74245000D01*
X151800000Y-82400000D02*
X151695000Y-82295000D01*
X151695000Y-82295000D02*
X151695000Y-74395000D01*
%TO.N,Net-(U3-RUN)*%
X137235000Y-67815000D02*
X143985000Y-67815000D01*
X137315000Y-67895000D02*
X137235000Y-67815000D01*
X152445000Y-52045000D02*
X145945000Y-52045000D01*
X145945000Y-65855000D02*
X145945000Y-52045000D01*
X143985000Y-67815000D02*
X145945000Y-65855000D01*
%TO.N,SDA_1*%
X99475000Y-54175000D02*
X108035000Y-62735000D01*
X91945000Y-54175000D02*
X99475000Y-54175000D01*
X108035000Y-62735000D02*
X119455000Y-62735000D01*
%TO.N,SCL_1*%
X91945000Y-56715000D02*
X98265000Y-56715000D01*
X98265000Y-56715000D02*
X106825000Y-65275000D01*
X106825000Y-65275000D02*
X119455000Y-65275000D01*
%TO.N,SCK{slash}SPI0*%
X108945000Y-45645000D02*
X108945000Y-45799164D01*
X107315000Y-44015000D02*
X108945000Y-45645000D01*
X109195000Y-48895000D02*
X110335000Y-50035000D01*
X109195000Y-46049164D02*
X109195000Y-48895000D01*
X91945000Y-44015000D02*
X107315000Y-44015000D01*
X110335000Y-50035000D02*
X119455000Y-50035000D01*
X108945000Y-45799164D02*
X109195000Y-46049164D01*
%TO.N,TX{slash}SPI0*%
X104605000Y-46555000D02*
X106695000Y-48645000D01*
X91945000Y-46555000D02*
X104605000Y-46555000D01*
X108625000Y-52575000D02*
X119455000Y-52575000D01*
X106695000Y-50645000D02*
X108625000Y-52575000D01*
X106695000Y-48645000D02*
X106695000Y-50645000D01*
%TO.N,CSn{slash}SPI0*%
X114195000Y-40395000D02*
X114195000Y-43395000D01*
X114195000Y-43395000D02*
X115755000Y-44955000D01*
X112735000Y-38935000D02*
X114195000Y-40395000D01*
X91945000Y-38935000D02*
X112735000Y-38935000D01*
X115755000Y-44955000D02*
X119455000Y-44955000D01*
%TO.N,RX{slash}SPI0*%
X119455000Y-42415000D02*
X119455000Y-39405000D01*
X116445000Y-36395000D02*
X91945000Y-36395000D01*
X119455000Y-39405000D02*
X116445000Y-36395000D01*
%TO.N,PIN_RPM*%
X125545000Y-77945000D02*
X124645000Y-77945000D01*
X141355000Y-106875000D02*
X132555000Y-106875000D01*
X124645000Y-77945000D02*
X124615000Y-77975000D01*
X131525000Y-103945000D02*
X131525000Y-83925000D01*
X131525000Y-105845000D02*
X131525000Y-103945000D01*
X124615000Y-77975000D02*
X119455000Y-77975000D01*
X132555000Y-106875000D02*
X131525000Y-105845000D01*
X131525000Y-83925000D02*
X125545000Y-77945000D01*
%TD*%
%TA.AperFunction,Conductor*%
%TO.N,GND*%
G36*
X124451383Y-80745185D02*
G01*
X124472025Y-80761819D01*
X128738181Y-85027975D01*
X128771666Y-85089298D01*
X128774500Y-85115656D01*
X128774500Y-100989347D01*
X128754815Y-101056386D01*
X128702011Y-101102141D01*
X128664896Y-101112509D01*
X128489174Y-101133048D01*
X128489161Y-101133050D01*
X128166090Y-101209620D01*
X128166069Y-101209627D01*
X127854059Y-101323189D01*
X127854053Y-101323192D01*
X127557330Y-101472212D01*
X127279920Y-101654668D01*
X127279912Y-101654674D01*
X127110953Y-101796448D01*
X127025553Y-101868107D01*
X126797690Y-102109629D01*
X126797687Y-102109632D01*
X126797685Y-102109635D01*
X126797678Y-102109643D01*
X126599406Y-102375968D01*
X126433385Y-102663525D01*
X126433379Y-102663538D01*
X126301866Y-102968419D01*
X126206634Y-103286518D01*
X126206631Y-103286532D01*
X126148977Y-103613504D01*
X126148976Y-103613515D01*
X126129669Y-103944996D01*
X126129669Y-103945003D01*
X126148976Y-104276484D01*
X126148977Y-104276495D01*
X126206631Y-104603467D01*
X126206634Y-104603481D01*
X126229203Y-104678867D01*
X126229572Y-104748736D01*
X126198093Y-104802111D01*
X118390879Y-112609326D01*
X118198265Y-112850857D01*
X118071279Y-113052953D01*
X118018944Y-113099244D01*
X117949891Y-113109892D01*
X117925333Y-113104023D01*
X117907649Y-113097835D01*
X117907635Y-113097831D01*
X117606455Y-113029089D01*
X117606437Y-113029086D01*
X117299471Y-112994500D01*
X117299465Y-112994500D01*
X76315656Y-112994500D01*
X76248617Y-112974815D01*
X76227975Y-112958181D01*
X74141819Y-110872025D01*
X74108334Y-110810702D01*
X74105500Y-110784344D01*
X74105500Y-93569500D01*
X74125185Y-93502461D01*
X74177989Y-93456706D01*
X74229500Y-93445500D01*
X83294942Y-93445500D01*
X83361981Y-93465185D01*
X83407736Y-93517989D01*
X83418732Y-93562291D01*
X83418976Y-93566484D01*
X83418977Y-93566495D01*
X83476631Y-93893467D01*
X83476634Y-93893481D01*
X83571866Y-94211580D01*
X83677249Y-94455886D01*
X83685727Y-94525240D01*
X83677249Y-94554114D01*
X83571866Y-94798419D01*
X83476634Y-95116518D01*
X83476631Y-95116532D01*
X83418977Y-95443504D01*
X83418976Y-95443515D01*
X83399669Y-95774996D01*
X83399669Y-95775003D01*
X83418976Y-96106484D01*
X83418977Y-96106495D01*
X83476631Y-96433467D01*
X83476634Y-96433481D01*
X83571866Y-96751580D01*
X83703379Y-97056461D01*
X83703385Y-97056474D01*
X83869406Y-97344031D01*
X84067678Y-97610356D01*
X84067683Y-97610362D01*
X84067690Y-97610371D01*
X84295553Y-97851893D01*
X84472657Y-98000500D01*
X84549912Y-98065325D01*
X84549920Y-98065331D01*
X84827330Y-98247787D01*
X84827334Y-98247789D01*
X85124061Y-98396811D01*
X85436082Y-98510377D01*
X85436088Y-98510378D01*
X85436090Y-98510379D01*
X85759161Y-98586949D01*
X85759168Y-98586950D01*
X85759177Y-98586952D01*
X86088977Y-98625500D01*
X86088984Y-98625500D01*
X86421016Y-98625500D01*
X86421023Y-98625500D01*
X86750823Y-98586952D01*
X86996008Y-98528841D01*
X87024604Y-98525500D01*
X102944808Y-98525500D01*
X102971166Y-98528334D01*
X103209566Y-98580195D01*
X103209568Y-98580195D01*
X103209572Y-98580196D01*
X103423552Y-98595500D01*
X105266448Y-98595500D01*
X105480428Y-98580196D01*
X105718834Y-98528333D01*
X105745192Y-98525500D01*
X114509468Y-98525500D01*
X114509469Y-98525499D01*
X114666356Y-98507822D01*
X114816437Y-98490913D01*
X114816442Y-98490912D01*
X114816452Y-98490911D01*
X115117636Y-98422168D01*
X115358820Y-98337774D01*
X115376604Y-98331551D01*
X115409223Y-98320138D01*
X115409226Y-98320136D01*
X115409230Y-98320135D01*
X115687565Y-98186096D01*
X115949143Y-98021735D01*
X116190674Y-97829120D01*
X120847100Y-93172692D01*
X120879136Y-93149561D01*
X120882666Y-93147789D01*
X121160085Y-92965327D01*
X121414447Y-92751893D01*
X121642310Y-92510371D01*
X121840594Y-92244030D01*
X122006617Y-91956470D01*
X122138133Y-91651581D01*
X122233365Y-91333485D01*
X122291024Y-91006484D01*
X122310331Y-90675000D01*
X122291024Y-90343516D01*
X122233365Y-90016515D01*
X122138133Y-89698419D01*
X122032748Y-89454111D01*
X122024271Y-89384761D01*
X122032747Y-89355891D01*
X122138133Y-89111581D01*
X122233365Y-88793485D01*
X122291024Y-88466484D01*
X122307459Y-88184308D01*
X122310331Y-88135003D01*
X122310331Y-88134996D01*
X122298756Y-87936275D01*
X122291024Y-87803516D01*
X122280317Y-87742796D01*
X122233368Y-87476532D01*
X122233367Y-87476531D01*
X122233365Y-87476515D01*
X122166057Y-87251691D01*
X122165688Y-87181823D01*
X122168659Y-87172812D01*
X122229369Y-87010046D01*
X122272537Y-86811605D01*
X122290195Y-86730433D01*
X122290195Y-86730432D01*
X122290196Y-86730428D01*
X122305500Y-86516448D01*
X122305500Y-84673552D01*
X122290196Y-84459572D01*
X122229369Y-84179954D01*
X122168666Y-84017203D01*
X122163682Y-83947512D01*
X122166057Y-83938306D01*
X122233365Y-83713485D01*
X122291024Y-83386484D01*
X122310331Y-83055000D01*
X122291024Y-82723516D01*
X122247918Y-82479052D01*
X122233368Y-82396532D01*
X122233367Y-82396531D01*
X122233365Y-82396515D01*
X122138133Y-82078419D01*
X122032748Y-81834111D01*
X122024271Y-81764761D01*
X122032747Y-81735891D01*
X122138133Y-81491581D01*
X122233365Y-81173485D01*
X122291024Y-80846484D01*
X122291268Y-80842290D01*
X122314816Y-80776509D01*
X122370191Y-80733902D01*
X122415058Y-80725500D01*
X124384344Y-80725500D01*
X124451383Y-80745185D01*
G37*
%TD.AperFunction*%
%TA.AperFunction,Conductor*%
G36*
X158188947Y-67486765D02*
G01*
X158223334Y-67511047D01*
X161158181Y-70445894D01*
X161191666Y-70507217D01*
X161194500Y-70533575D01*
X161194500Y-106654344D01*
X161174815Y-106721383D01*
X161158181Y-106742025D01*
X160042025Y-107858181D01*
X159980702Y-107891666D01*
X159954344Y-107894500D01*
X144329500Y-107894500D01*
X144262461Y-107874815D01*
X144216706Y-107822011D01*
X144205500Y-107770500D01*
X144205500Y-105953552D01*
X144190196Y-105739572D01*
X144129369Y-105459954D01*
X144029367Y-105191839D01*
X143892226Y-104940685D01*
X143761238Y-104765705D01*
X143720745Y-104711612D01*
X143720729Y-104711594D01*
X143518405Y-104509270D01*
X143518387Y-104509254D01*
X143289317Y-104337775D01*
X143289309Y-104337770D01*
X143038166Y-104200635D01*
X143038167Y-104200635D01*
X142813080Y-104116682D01*
X142770046Y-104100631D01*
X142770043Y-104100630D01*
X142770037Y-104100628D01*
X142490433Y-104039804D01*
X142276450Y-104024500D01*
X142276448Y-104024500D01*
X140433552Y-104024500D01*
X140433549Y-104024500D01*
X140219566Y-104039804D01*
X139939960Y-104100629D01*
X139939955Y-104100630D01*
X139939954Y-104100631D01*
X139896920Y-104116682D01*
X139853587Y-104124500D01*
X137041308Y-104124500D01*
X136974269Y-104104815D01*
X136928514Y-104052011D01*
X136917518Y-103993289D01*
X136920331Y-103945001D01*
X136920331Y-103944996D01*
X136909364Y-103756710D01*
X136925117Y-103688640D01*
X136975171Y-103639892D01*
X137033154Y-103625500D01*
X139853587Y-103625500D01*
X139896919Y-103633317D01*
X139939954Y-103649369D01*
X140079763Y-103679782D01*
X140219566Y-103710195D01*
X140219568Y-103710195D01*
X140219572Y-103710196D01*
X140433552Y-103725500D01*
X142276448Y-103725500D01*
X142490428Y-103710196D01*
X142770046Y-103649369D01*
X143038161Y-103549367D01*
X143289315Y-103412226D01*
X143518395Y-103240739D01*
X143720739Y-103038395D01*
X143892226Y-102809315D01*
X144029367Y-102558161D01*
X144129369Y-102290046D01*
X144190196Y-102010428D01*
X144205500Y-101796448D01*
X144205500Y-99953552D01*
X144190196Y-99739572D01*
X144129369Y-99459954D01*
X144029367Y-99191839D01*
X143892226Y-98940685D01*
X143892224Y-98940682D01*
X143720745Y-98711612D01*
X143720729Y-98711594D01*
X143518405Y-98509270D01*
X143518387Y-98509254D01*
X143289315Y-98337774D01*
X143289309Y-98337770D01*
X143038166Y-98200635D01*
X143038167Y-98200635D01*
X142813080Y-98116682D01*
X142770046Y-98100631D01*
X142770043Y-98100630D01*
X142770037Y-98100628D01*
X142490433Y-98039804D01*
X142276450Y-98024500D01*
X142276448Y-98024500D01*
X140433552Y-98024500D01*
X140433549Y-98024500D01*
X140219566Y-98039804D01*
X139939960Y-98100629D01*
X139939955Y-98100630D01*
X139939954Y-98100631D01*
X139896920Y-98116682D01*
X139853587Y-98124500D01*
X136939500Y-98124500D01*
X136872461Y-98104815D01*
X136826706Y-98052011D01*
X136815500Y-98000500D01*
X136815500Y-93635210D01*
X136835185Y-93568171D01*
X136887989Y-93522416D01*
X136953893Y-93512048D01*
X137068977Y-93525500D01*
X137068985Y-93525500D01*
X137401016Y-93525500D01*
X137401023Y-93525500D01*
X137730823Y-93486952D01*
X137730832Y-93486949D01*
X137730838Y-93486949D01*
X137991445Y-93425183D01*
X138053918Y-93410377D01*
X138365939Y-93296811D01*
X138662666Y-93147789D01*
X138940085Y-92965327D01*
X139194447Y-92751893D01*
X139422310Y-92510371D01*
X139620594Y-92244030D01*
X139786617Y-91956470D01*
X139918133Y-91651581D01*
X140013365Y-91333485D01*
X140071024Y-91006484D01*
X140090331Y-90675000D01*
X140071024Y-90343516D01*
X140013365Y-90016515D01*
X139918133Y-89698419D01*
X139812748Y-89454111D01*
X139804271Y-89384761D01*
X139812747Y-89355891D01*
X139918133Y-89111581D01*
X140013365Y-88793485D01*
X140071024Y-88466484D01*
X140087459Y-88184308D01*
X140090331Y-88135003D01*
X140090331Y-88134996D01*
X140078756Y-87936275D01*
X140071024Y-87803516D01*
X140060317Y-87742796D01*
X140013368Y-87476532D01*
X140013367Y-87476531D01*
X140013365Y-87476515D01*
X139946057Y-87251691D01*
X139945688Y-87181823D01*
X139948659Y-87172812D01*
X140009369Y-87010046D01*
X140052537Y-86811605D01*
X140070195Y-86730433D01*
X140070195Y-86730432D01*
X140070196Y-86730428D01*
X140085500Y-86516448D01*
X140085500Y-85929500D01*
X140105185Y-85862461D01*
X140157989Y-85816706D01*
X140209500Y-85805500D01*
X151299468Y-85805500D01*
X151299469Y-85805499D01*
X151456356Y-85787822D01*
X151606437Y-85770913D01*
X151606442Y-85770912D01*
X151606452Y-85770911D01*
X151907636Y-85702168D01*
X152129598Y-85624500D01*
X152177233Y-85607831D01*
X152199228Y-85600136D01*
X152199228Y-85600135D01*
X152199230Y-85600135D01*
X152477565Y-85466096D01*
X152739143Y-85301735D01*
X152980674Y-85109120D01*
X153854121Y-84235674D01*
X154046735Y-83994143D01*
X154211096Y-83732565D01*
X154345135Y-83454230D01*
X154447167Y-83162636D01*
X154515911Y-82861452D01*
X154550500Y-82554465D01*
X154550500Y-82245535D01*
X154518406Y-81960692D01*
X154522834Y-81911251D01*
X154619569Y-81588136D01*
X154636595Y-81491580D01*
X154680260Y-81243938D01*
X154680259Y-81243938D01*
X154680262Y-81243927D01*
X154700585Y-80895000D01*
X154680262Y-80546073D01*
X154652836Y-80390532D01*
X154619571Y-80201872D01*
X154619569Y-80201865D01*
X154619569Y-80201864D01*
X154519326Y-79867029D01*
X154455641Y-79719390D01*
X154445500Y-79670276D01*
X154445500Y-75619722D01*
X154455641Y-75570608D01*
X154519326Y-75422971D01*
X154619569Y-75088136D01*
X154680262Y-74743927D01*
X154700585Y-74395000D01*
X154680262Y-74046073D01*
X154677504Y-74030433D01*
X154619571Y-73701872D01*
X154619569Y-73701865D01*
X154600709Y-73638867D01*
X154519326Y-73367029D01*
X154380889Y-73046096D01*
X154312112Y-72926970D01*
X154295500Y-72864971D01*
X154295500Y-70200532D01*
X154295499Y-70200528D01*
X154260913Y-69893562D01*
X154260910Y-69893544D01*
X154192168Y-69592364D01*
X154192164Y-69592352D01*
X154090137Y-69300777D01*
X154090135Y-69300771D01*
X153956095Y-69022435D01*
X153791735Y-68760857D01*
X153599120Y-68519326D01*
X153381975Y-68302181D01*
X153348490Y-68240858D01*
X153353474Y-68171166D01*
X153395346Y-68115233D01*
X153460810Y-68090816D01*
X153469656Y-68090500D01*
X155430396Y-68090500D01*
X155458991Y-68093841D01*
X155704177Y-68151952D01*
X156033977Y-68190500D01*
X156033984Y-68190500D01*
X156366016Y-68190500D01*
X156366023Y-68190500D01*
X156695823Y-68151952D01*
X156695832Y-68151949D01*
X156695838Y-68151949D01*
X157010015Y-68077487D01*
X157018918Y-68075377D01*
X157330939Y-67961811D01*
X157627666Y-67812789D01*
X157905085Y-67630327D01*
X158008433Y-67543607D01*
X158055947Y-67503739D01*
X158119955Y-67475726D01*
X158188947Y-67486765D01*
G37*
%TD.AperFunction*%
%TA.AperFunction,Conductor*%
G36*
X84412951Y-65495185D02*
G01*
X84458706Y-65547989D01*
X84468650Y-65617147D01*
X84439625Y-65680703D01*
X84425620Y-65694486D01*
X84385553Y-65728107D01*
X84157690Y-65969629D01*
X84157687Y-65969632D01*
X84157685Y-65969635D01*
X84157678Y-65969643D01*
X83959406Y-66235968D01*
X83793385Y-66523525D01*
X83793379Y-66523538D01*
X83661866Y-66828419D01*
X83566634Y-67146518D01*
X83566631Y-67146532D01*
X83508977Y-67473504D01*
X83508976Y-67473515D01*
X83489669Y-67804996D01*
X83489669Y-67805003D01*
X83508976Y-68136484D01*
X83508977Y-68136495D01*
X83566631Y-68463467D01*
X83566634Y-68463481D01*
X83566635Y-68463485D01*
X83569628Y-68473481D01*
X83661866Y-68781580D01*
X83767249Y-69025886D01*
X83775727Y-69095240D01*
X83767249Y-69124114D01*
X83661866Y-69368419D01*
X83566634Y-69686518D01*
X83566631Y-69686532D01*
X83508977Y-70013504D01*
X83508976Y-70013515D01*
X83489669Y-70344996D01*
X83489669Y-70345003D01*
X83508976Y-70676484D01*
X83508977Y-70676495D01*
X83566631Y-71003467D01*
X83566634Y-71003481D01*
X83566635Y-71003485D01*
X83569626Y-71013476D01*
X83661866Y-71321580D01*
X83793379Y-71626461D01*
X83793385Y-71626474D01*
X83959406Y-71914031D01*
X84157678Y-72180356D01*
X84157683Y-72180362D01*
X84157690Y-72180371D01*
X84385553Y-72421893D01*
X84550739Y-72560500D01*
X84639912Y-72635325D01*
X84639920Y-72635331D01*
X84917330Y-72817787D01*
X84917334Y-72817789D01*
X85214061Y-72966811D01*
X85526082Y-73080377D01*
X85526088Y-73080378D01*
X85526090Y-73080379D01*
X85849161Y-73156949D01*
X85849168Y-73156950D01*
X85849177Y-73156952D01*
X86178977Y-73195500D01*
X86178984Y-73195500D01*
X86511016Y-73195500D01*
X86511023Y-73195500D01*
X86840823Y-73156952D01*
X87043815Y-73108842D01*
X87072411Y-73105500D01*
X91217589Y-73105500D01*
X91246185Y-73108842D01*
X91449177Y-73156952D01*
X91778977Y-73195500D01*
X91778984Y-73195500D01*
X92111016Y-73195500D01*
X92111023Y-73195500D01*
X92440823Y-73156952D01*
X92643815Y-73108842D01*
X92672411Y-73105500D01*
X116480500Y-73105500D01*
X116547539Y-73125185D01*
X116593294Y-73177989D01*
X116604500Y-73229500D01*
X116604500Y-73816450D01*
X116619804Y-74030433D01*
X116680631Y-74310047D01*
X116741332Y-74472795D01*
X116746316Y-74542487D01*
X116743941Y-74551691D01*
X116676636Y-74776508D01*
X116676632Y-74776523D01*
X116618977Y-75103504D01*
X116618976Y-75103515D01*
X116599669Y-75434996D01*
X116599669Y-75435003D01*
X116618976Y-75766484D01*
X116618977Y-75766495D01*
X116676631Y-76093467D01*
X116676634Y-76093481D01*
X116771866Y-76411580D01*
X116877249Y-76655886D01*
X116885727Y-76725240D01*
X116877249Y-76754114D01*
X116771866Y-76998419D01*
X116676634Y-77316518D01*
X116676631Y-77316532D01*
X116618977Y-77643504D01*
X116618976Y-77643515D01*
X116618732Y-77647709D01*
X116595184Y-77713491D01*
X116539809Y-77756098D01*
X116494942Y-77764500D01*
X112220530Y-77764500D01*
X111954277Y-77794500D01*
X111925917Y-77797695D01*
X111913544Y-77799089D01*
X111913543Y-77799089D01*
X111887802Y-77804964D01*
X111887803Y-77804965D01*
X111612360Y-77867832D01*
X111612352Y-77867835D01*
X111320777Y-77969862D01*
X111320763Y-77969868D01*
X111197792Y-78029089D01*
X111197791Y-78029089D01*
X111042439Y-78103901D01*
X110780857Y-78268264D01*
X110539326Y-78460879D01*
X110290879Y-78709326D01*
X110098264Y-78950858D01*
X109933902Y-79212437D01*
X109799865Y-79490768D01*
X109697832Y-79782366D01*
X109629089Y-80083548D01*
X109629086Y-80083562D01*
X109594500Y-80390528D01*
X109594500Y-80699471D01*
X109629086Y-81006437D01*
X109629089Y-81006451D01*
X109697832Y-81307633D01*
X109799865Y-81599232D01*
X109799867Y-81599236D01*
X109889903Y-81786199D01*
X109901255Y-81855140D01*
X109889903Y-81893801D01*
X109799867Y-82080763D01*
X109799865Y-82080767D01*
X109697832Y-82372366D01*
X109629089Y-82673548D01*
X109629086Y-82673562D01*
X109594500Y-82980528D01*
X109594500Y-83289471D01*
X109629086Y-83596437D01*
X109629089Y-83596451D01*
X109697832Y-83897633D01*
X109799865Y-84189231D01*
X109933902Y-84467562D01*
X109933904Y-84467565D01*
X110098265Y-84729143D01*
X110290880Y-84970674D01*
X110509326Y-85189120D01*
X110750857Y-85381735D01*
X111012435Y-85546096D01*
X111290770Y-85680135D01*
X111582364Y-85782167D01*
X111883548Y-85850911D01*
X111883557Y-85850912D01*
X111883562Y-85850913D01*
X112088206Y-85873970D01*
X112190529Y-85885499D01*
X112190532Y-85885500D01*
X112190535Y-85885500D01*
X112499468Y-85885500D01*
X112499469Y-85885499D01*
X112703943Y-85862461D01*
X112806437Y-85850913D01*
X112806440Y-85850912D01*
X112806452Y-85850911D01*
X112991788Y-85808609D01*
X113019381Y-85805500D01*
X115550269Y-85805500D01*
X115617308Y-85825185D01*
X115663063Y-85877989D01*
X115673007Y-85947147D01*
X115643982Y-86010703D01*
X115627581Y-86026447D01*
X115559332Y-86080872D01*
X115559328Y-86080876D01*
X111192025Y-90448181D01*
X111130702Y-90481666D01*
X111104344Y-90484500D01*
X107162697Y-90484500D01*
X107095658Y-90464815D01*
X107049903Y-90412011D01*
X107039959Y-90342853D01*
X107041531Y-90334142D01*
X107090195Y-90110433D01*
X107090195Y-90110432D01*
X107090196Y-90110428D01*
X107105500Y-89896448D01*
X107105500Y-88053552D01*
X107090196Y-87839572D01*
X107082352Y-87803515D01*
X107029371Y-87559962D01*
X107029370Y-87559960D01*
X107029369Y-87559954D01*
X106929367Y-87291839D01*
X106907444Y-87251691D01*
X106792229Y-87040690D01*
X106792224Y-87040682D01*
X106620745Y-86811612D01*
X106620729Y-86811594D01*
X106418405Y-86609270D01*
X106418387Y-86609254D01*
X106189317Y-86437775D01*
X106189309Y-86437770D01*
X105938166Y-86300635D01*
X105938167Y-86300635D01*
X105830915Y-86260632D01*
X105670046Y-86200631D01*
X105670043Y-86200630D01*
X105670037Y-86200628D01*
X105390433Y-86139804D01*
X105176450Y-86124500D01*
X105176448Y-86124500D01*
X104966307Y-86124500D01*
X104899268Y-86104815D01*
X104853513Y-86052011D01*
X104843569Y-85982853D01*
X104872594Y-85919297D01*
X104931372Y-85881523D01*
X104952424Y-85877280D01*
X105186437Y-85850913D01*
X105186442Y-85850912D01*
X105186452Y-85850911D01*
X105487636Y-85782168D01*
X105779229Y-85680135D01*
X106057565Y-85546095D01*
X106319143Y-85381735D01*
X106560674Y-85189120D01*
X106779120Y-84970674D01*
X106971735Y-84729143D01*
X107136095Y-84467565D01*
X107270135Y-84189229D01*
X107372168Y-83897636D01*
X107440911Y-83596452D01*
X107475500Y-83289465D01*
X107475500Y-82980535D01*
X107462081Y-82861437D01*
X107440913Y-82673562D01*
X107440910Y-82673544D01*
X107372168Y-82372364D01*
X107372164Y-82372352D01*
X107270137Y-82080777D01*
X107270135Y-82080771D01*
X107180093Y-81893799D01*
X107168742Y-81824861D01*
X107180094Y-81786199D01*
X107270135Y-81599229D01*
X107372168Y-81307636D01*
X107440911Y-81006452D01*
X107475500Y-80699465D01*
X107475500Y-80390535D01*
X107452175Y-80183515D01*
X107440913Y-80083562D01*
X107440910Y-80083544D01*
X107372168Y-79782364D01*
X107372164Y-79782352D01*
X107270137Y-79490777D01*
X107270135Y-79490771D01*
X107136095Y-79212435D01*
X106971735Y-78950857D01*
X106779120Y-78709326D01*
X106560674Y-78490880D01*
X106319143Y-78298265D01*
X106057565Y-78133905D01*
X106057562Y-78133903D01*
X105779236Y-77999868D01*
X105779222Y-77999862D01*
X105487647Y-77897835D01*
X105487635Y-77897831D01*
X105186455Y-77829089D01*
X105186437Y-77829086D01*
X104879471Y-77794500D01*
X104879465Y-77794500D01*
X100975656Y-77794500D01*
X100908617Y-77774815D01*
X100887975Y-77758181D01*
X100336142Y-77206348D01*
X100314070Y-77173747D01*
X100312999Y-77174286D01*
X100311372Y-77171047D01*
X100142439Y-76878446D01*
X99940681Y-76607438D01*
X99940676Y-76607432D01*
X99755898Y-76411580D01*
X99708817Y-76361677D01*
X99708810Y-76361671D01*
X99708808Y-76361669D01*
X99449998Y-76144500D01*
X99308851Y-76051667D01*
X99167708Y-75958836D01*
X99162593Y-75956267D01*
X98865783Y-75807203D01*
X98865777Y-75807200D01*
X98548284Y-75691642D01*
X98548281Y-75691641D01*
X98321639Y-75637926D01*
X98219520Y-75613724D01*
X97883935Y-75574500D01*
X97546065Y-75574500D01*
X97210480Y-75613724D01*
X96881718Y-75691641D01*
X96881715Y-75691642D01*
X96564222Y-75807200D01*
X96564216Y-75807203D01*
X96262295Y-75958834D01*
X95980001Y-76144500D01*
X95721191Y-76361669D01*
X95721181Y-76361679D01*
X95489323Y-76607432D01*
X95489318Y-76607438D01*
X95287560Y-76878446D01*
X95118627Y-77171047D01*
X95118621Y-77171060D01*
X94984801Y-77481289D01*
X94887899Y-77804968D01*
X94887896Y-77804982D01*
X94829230Y-78137690D01*
X94829229Y-78137701D01*
X94809584Y-78474996D01*
X94809584Y-78475003D01*
X94829229Y-78812298D01*
X94829230Y-78812309D01*
X94887896Y-79145017D01*
X94887899Y-79145031D01*
X94984801Y-79468710D01*
X95118621Y-79778939D01*
X95118627Y-79778952D01*
X95287560Y-80071553D01*
X95489318Y-80342561D01*
X95489323Y-80342567D01*
X95534579Y-80390535D01*
X95721183Y-80588323D01*
X95721189Y-80588328D01*
X95721191Y-80588330D01*
X95980001Y-80805499D01*
X95980006Y-80805502D01*
X96262292Y-80991164D01*
X96403277Y-81061969D01*
X96435301Y-81085095D01*
X97057524Y-81707318D01*
X97091009Y-81768641D01*
X97086025Y-81838333D01*
X97057524Y-81882680D01*
X96475302Y-82464902D01*
X96443273Y-82488031D01*
X96302295Y-82558834D01*
X96020001Y-82744500D01*
X95761191Y-82961669D01*
X95761181Y-82961679D01*
X95529323Y-83207432D01*
X95529318Y-83207438D01*
X95327560Y-83478446D01*
X95158627Y-83771047D01*
X95158621Y-83771060D01*
X95024801Y-84081289D01*
X94927899Y-84404968D01*
X94927896Y-84404982D01*
X94869230Y-84737690D01*
X94869229Y-84737701D01*
X94849584Y-85074996D01*
X94849584Y-85075003D01*
X94869229Y-85412298D01*
X94869230Y-85412309D01*
X94927896Y-85745017D01*
X94927899Y-85745031D01*
X94927900Y-85745035D01*
X94935647Y-85770911D01*
X95024801Y-86068710D01*
X95158621Y-86378939D01*
X95158627Y-86378952D01*
X95327560Y-86671553D01*
X95529318Y-86942561D01*
X95529323Y-86942567D01*
X95621898Y-87040690D01*
X95761183Y-87188323D01*
X95761189Y-87188328D01*
X95761191Y-87188330D01*
X96020001Y-87405499D01*
X96020006Y-87405502D01*
X96302292Y-87591164D01*
X96604224Y-87742800D01*
X96921717Y-87858358D01*
X97250480Y-87936276D01*
X97586065Y-87975500D01*
X97586072Y-87975500D01*
X97923928Y-87975500D01*
X97923935Y-87975500D01*
X98259520Y-87936276D01*
X98588283Y-87858358D01*
X98905776Y-87742800D01*
X99207708Y-87591164D01*
X99489994Y-87405502D01*
X99748817Y-87188323D01*
X99980678Y-86942565D01*
X100182440Y-86671552D01*
X100351375Y-86378948D01*
X100351381Y-86378934D01*
X100353000Y-86375712D01*
X100354220Y-86376325D01*
X100376140Y-86343652D01*
X100797975Y-85921819D01*
X100859298Y-85888334D01*
X100885656Y-85885500D01*
X103203287Y-85885500D01*
X103270326Y-85905185D01*
X103316081Y-85957989D01*
X103326025Y-86027147D01*
X103297000Y-86090703D01*
X103238222Y-86128477D01*
X103212133Y-86133184D01*
X103119566Y-86139804D01*
X102839962Y-86200628D01*
X102571833Y-86300635D01*
X102320690Y-86437770D01*
X102320682Y-86437775D01*
X102091612Y-86609254D01*
X102091594Y-86609270D01*
X101889270Y-86811594D01*
X101889254Y-86811612D01*
X101717775Y-87040682D01*
X101717770Y-87040690D01*
X101580635Y-87291833D01*
X101480628Y-87559962D01*
X101419804Y-87839566D01*
X101404500Y-88053549D01*
X101404500Y-89896450D01*
X101419804Y-90110433D01*
X101468469Y-90334142D01*
X101463485Y-90403834D01*
X101421613Y-90459767D01*
X101356149Y-90484184D01*
X101347303Y-90484500D01*
X89229500Y-90484500D01*
X89162461Y-90464815D01*
X89116706Y-90412011D01*
X89105500Y-90360500D01*
X89105500Y-89773552D01*
X89090196Y-89559572D01*
X89052168Y-89384761D01*
X89029371Y-89279962D01*
X89029370Y-89279960D01*
X89029369Y-89279954D01*
X88929367Y-89011839D01*
X88810126Y-88793467D01*
X88792229Y-88760690D01*
X88792224Y-88760682D01*
X88620745Y-88531612D01*
X88620729Y-88531594D01*
X88418405Y-88329270D01*
X88418387Y-88329254D01*
X88189317Y-88157775D01*
X88189309Y-88157770D01*
X87938166Y-88020635D01*
X87938167Y-88020635D01*
X87713080Y-87936682D01*
X87670046Y-87920631D01*
X87670043Y-87920630D01*
X87670037Y-87920628D01*
X87390433Y-87859804D01*
X87176450Y-87844500D01*
X87176448Y-87844500D01*
X85333552Y-87844500D01*
X85333549Y-87844500D01*
X85119566Y-87859804D01*
X84839960Y-87920629D01*
X84839955Y-87920630D01*
X84839954Y-87920631D01*
X84796920Y-87936682D01*
X84753587Y-87944500D01*
X74229500Y-87944500D01*
X74162461Y-87924815D01*
X74116706Y-87872011D01*
X74105500Y-87820500D01*
X74105500Y-65599500D01*
X74125185Y-65532461D01*
X74177989Y-65486706D01*
X74229500Y-65475500D01*
X84345912Y-65475500D01*
X84412951Y-65495185D01*
G37*
%TD.AperFunction*%
%TA.AperFunction,Conductor*%
G36*
X147727576Y-68044276D02*
G01*
X147778548Y-68055911D01*
X147778557Y-68055912D01*
X147778562Y-68055913D01*
X147970041Y-68077487D01*
X148085529Y-68090499D01*
X148085532Y-68090500D01*
X148085535Y-68090500D01*
X149620344Y-68090500D01*
X149687383Y-68110185D01*
X149733138Y-68162989D01*
X149743082Y-68232147D01*
X149714057Y-68295703D01*
X149708025Y-68302181D01*
X149490879Y-68519326D01*
X149298264Y-68760858D01*
X149133903Y-69022437D01*
X148999868Y-69300763D01*
X148999862Y-69300777D01*
X148897835Y-69592352D01*
X148897831Y-69592364D01*
X148829089Y-69893544D01*
X148829086Y-69893562D01*
X148794500Y-70200528D01*
X148794500Y-73603303D01*
X148789291Y-73638867D01*
X148770431Y-73701862D01*
X148770428Y-73701872D01*
X148709739Y-74046061D01*
X148709738Y-74046072D01*
X148689415Y-74394996D01*
X148689415Y-74395003D01*
X148709738Y-74743927D01*
X148709739Y-74743938D01*
X148770428Y-75088127D01*
X148770430Y-75088134D01*
X148870674Y-75422972D01*
X148934359Y-75570608D01*
X148944500Y-75619722D01*
X148944500Y-79670276D01*
X148934359Y-79719390D01*
X148870674Y-79867027D01*
X148770431Y-80201862D01*
X148770431Y-80201863D01*
X148770402Y-80202029D01*
X148770382Y-80202067D01*
X148769600Y-80205371D01*
X148768835Y-80205189D01*
X148739377Y-80264632D01*
X148679431Y-80300525D01*
X148648285Y-80304500D01*
X140195058Y-80304500D01*
X140128019Y-80284815D01*
X140082264Y-80232011D01*
X140071268Y-80187709D01*
X140071024Y-80183516D01*
X140053399Y-80083562D01*
X140013368Y-79856532D01*
X140013367Y-79856531D01*
X140013365Y-79856515D01*
X139918133Y-79538419D01*
X139812748Y-79294111D01*
X139804271Y-79224761D01*
X139812747Y-79195891D01*
X139918133Y-78951581D01*
X140013365Y-78633485D01*
X140071024Y-78306484D01*
X140090331Y-77975000D01*
X140071024Y-77643516D01*
X140013365Y-77316515D01*
X139918133Y-76998419D01*
X139812748Y-76754111D01*
X139804271Y-76684761D01*
X139812747Y-76655891D01*
X139918133Y-76411581D01*
X140013365Y-76093485D01*
X140071024Y-75766484D01*
X140090331Y-75435000D01*
X140089630Y-75422972D01*
X140086501Y-75369255D01*
X140071024Y-75103516D01*
X140013365Y-74776515D01*
X139946057Y-74551691D01*
X139945688Y-74481823D01*
X139948666Y-74472795D01*
X140009369Y-74310046D01*
X140070196Y-74030428D01*
X140085500Y-73816448D01*
X140085500Y-71973552D01*
X140070196Y-71759572D01*
X140009369Y-71479954D01*
X139948666Y-71317203D01*
X139943682Y-71247512D01*
X139946057Y-71238306D01*
X140013365Y-71013485D01*
X140071024Y-70686484D01*
X140071268Y-70682290D01*
X140094816Y-70616509D01*
X140150191Y-70573902D01*
X140195058Y-70565500D01*
X144139468Y-70565500D01*
X144139469Y-70565499D01*
X144296356Y-70547822D01*
X144446437Y-70530913D01*
X144446442Y-70530912D01*
X144446452Y-70530911D01*
X144453681Y-70529261D01*
X144747636Y-70462168D01*
X144969598Y-70384500D01*
X145017233Y-70367831D01*
X145039228Y-70360136D01*
X145039228Y-70360135D01*
X145039230Y-70360135D01*
X145317565Y-70226096D01*
X145579143Y-70061735D01*
X145820674Y-69869120D01*
X147612308Y-68077485D01*
X147673629Y-68044002D01*
X147727576Y-68044276D01*
G37*
%TD.AperFunction*%
%TA.AperFunction,Conductor*%
G36*
X89051981Y-36625185D02*
G01*
X89097736Y-36677989D01*
X89108732Y-36722291D01*
X89108976Y-36726484D01*
X89108977Y-36726495D01*
X89166631Y-37053467D01*
X89166634Y-37053481D01*
X89261866Y-37371580D01*
X89367249Y-37615886D01*
X89375727Y-37685240D01*
X89367249Y-37714114D01*
X89261866Y-37958419D01*
X89166634Y-38276518D01*
X89166631Y-38276532D01*
X89108977Y-38603504D01*
X89108976Y-38603515D01*
X89089669Y-38934996D01*
X89089669Y-38935003D01*
X89108976Y-39266484D01*
X89108977Y-39266495D01*
X89166631Y-39593467D01*
X89166634Y-39593481D01*
X89261866Y-39911580D01*
X89393379Y-40216461D01*
X89393385Y-40216474D01*
X89559406Y-40504031D01*
X89757678Y-40770356D01*
X89757683Y-40770362D01*
X89757690Y-40770371D01*
X89985553Y-41011893D01*
X90130509Y-41133525D01*
X90239912Y-41225325D01*
X90239920Y-41225331D01*
X90462006Y-41371400D01*
X90507200Y-41424685D01*
X90516411Y-41493944D01*
X90486716Y-41557190D01*
X90462006Y-41578600D01*
X90239920Y-41724668D01*
X90239912Y-41724674D01*
X90091438Y-41849259D01*
X89985553Y-41938107D01*
X89757690Y-42179629D01*
X89757687Y-42179632D01*
X89757685Y-42179635D01*
X89757678Y-42179643D01*
X89559406Y-42445968D01*
X89393385Y-42733525D01*
X89393379Y-42733538D01*
X89261866Y-43038419D01*
X89166634Y-43356518D01*
X89166631Y-43356532D01*
X89108977Y-43683504D01*
X89108976Y-43683515D01*
X89089669Y-44014996D01*
X89089669Y-44015003D01*
X89108976Y-44346484D01*
X89108977Y-44346495D01*
X89166631Y-44673467D01*
X89166634Y-44673481D01*
X89261866Y-44991580D01*
X89367249Y-45235886D01*
X89375727Y-45305240D01*
X89367249Y-45334114D01*
X89261866Y-45578419D01*
X89166634Y-45896518D01*
X89166631Y-45896532D01*
X89108977Y-46223504D01*
X89108976Y-46223515D01*
X89089669Y-46554996D01*
X89089669Y-46555003D01*
X89108976Y-46886484D01*
X89108977Y-46886495D01*
X89166631Y-47213467D01*
X89166634Y-47213481D01*
X89166635Y-47213485D01*
X89176167Y-47245324D01*
X89261866Y-47531580D01*
X89367249Y-47775886D01*
X89375727Y-47845240D01*
X89367249Y-47874114D01*
X89261866Y-48118419D01*
X89166634Y-48436518D01*
X89166631Y-48436532D01*
X89108977Y-48763504D01*
X89108976Y-48763515D01*
X89089669Y-49094996D01*
X89089669Y-49095003D01*
X89108976Y-49426484D01*
X89108977Y-49426495D01*
X89166631Y-49753467D01*
X89166634Y-49753481D01*
X89261866Y-50071580D01*
X89367249Y-50315886D01*
X89375727Y-50385240D01*
X89367249Y-50414114D01*
X89261866Y-50658419D01*
X89166634Y-50976518D01*
X89166631Y-50976532D01*
X89108977Y-51303504D01*
X89108976Y-51303515D01*
X89089669Y-51634996D01*
X89089669Y-51635003D01*
X89108976Y-51966484D01*
X89108977Y-51966495D01*
X89166631Y-52293467D01*
X89166634Y-52293481D01*
X89261866Y-52611580D01*
X89367249Y-52855886D01*
X89375727Y-52925240D01*
X89367249Y-52954114D01*
X89261866Y-53198419D01*
X89166634Y-53516518D01*
X89166631Y-53516532D01*
X89108977Y-53843504D01*
X89108976Y-53843515D01*
X89089669Y-54174996D01*
X89089669Y-54175003D01*
X89108976Y-54506484D01*
X89108977Y-54506495D01*
X89166631Y-54833467D01*
X89166634Y-54833481D01*
X89261866Y-55151580D01*
X89367249Y-55395886D01*
X89375727Y-55465240D01*
X89367249Y-55494114D01*
X89261866Y-55738419D01*
X89166634Y-56056518D01*
X89166631Y-56056532D01*
X89108977Y-56383504D01*
X89108976Y-56383515D01*
X89089669Y-56714996D01*
X89089669Y-56715003D01*
X89108976Y-57046484D01*
X89108977Y-57046495D01*
X89166631Y-57373467D01*
X89166634Y-57373481D01*
X89261866Y-57691580D01*
X89393379Y-57996461D01*
X89393385Y-57996474D01*
X89559406Y-58284031D01*
X89757678Y-58550356D01*
X89757683Y-58550362D01*
X89757690Y-58550371D01*
X89985553Y-58791893D01*
X90169689Y-58946400D01*
X90239912Y-59005325D01*
X90239920Y-59005331D01*
X90517330Y-59187787D01*
X90517334Y-59187789D01*
X90814061Y-59336811D01*
X91126082Y-59450377D01*
X91126088Y-59450378D01*
X91126090Y-59450379D01*
X91449161Y-59526949D01*
X91449168Y-59526950D01*
X91449177Y-59526952D01*
X91778977Y-59565500D01*
X91778984Y-59565500D01*
X92111016Y-59565500D01*
X92111023Y-59565500D01*
X92440823Y-59526952D01*
X92686008Y-59468841D01*
X92714604Y-59465500D01*
X97074344Y-59465500D01*
X97141383Y-59485185D01*
X97162025Y-59501819D01*
X102513025Y-64852819D01*
X102546510Y-64914142D01*
X102541526Y-64983834D01*
X102499654Y-65039767D01*
X102434190Y-65064184D01*
X102425344Y-65064500D01*
X94426629Y-65064500D01*
X94359590Y-65044815D01*
X94313835Y-64992011D01*
X94303891Y-64922853D01*
X94327362Y-64866190D01*
X94408874Y-64757301D01*
X94482226Y-64659315D01*
X94619367Y-64408161D01*
X94719369Y-64140046D01*
X94738062Y-64054114D01*
X94780195Y-63860433D01*
X94780195Y-63860432D01*
X94780196Y-63860428D01*
X94795500Y-63646448D01*
X94795500Y-61803552D01*
X94780196Y-61589572D01*
X94719369Y-61309954D01*
X94619367Y-61041839D01*
X94482226Y-60790685D01*
X94482224Y-60790682D01*
X94310745Y-60561612D01*
X94310729Y-60561594D01*
X94108405Y-60359270D01*
X94108387Y-60359254D01*
X93879317Y-60187775D01*
X93879309Y-60187770D01*
X93628166Y-60050635D01*
X93628167Y-60050635D01*
X93520915Y-60010632D01*
X93360046Y-59950631D01*
X93360043Y-59950630D01*
X93360037Y-59950628D01*
X93080433Y-59889804D01*
X92866450Y-59874500D01*
X92866448Y-59874500D01*
X91023552Y-59874500D01*
X91023549Y-59874500D01*
X90809566Y-59889804D01*
X90529960Y-59950629D01*
X90529955Y-59950630D01*
X90529954Y-59950631D01*
X90486920Y-59966682D01*
X90443587Y-59974500D01*
X87846413Y-59974500D01*
X87803080Y-59966682D01*
X87760046Y-59950631D01*
X87760042Y-59950630D01*
X87760039Y-59950629D01*
X87480433Y-59889804D01*
X87266450Y-59874500D01*
X87266448Y-59874500D01*
X85423552Y-59874500D01*
X85423549Y-59874500D01*
X85209566Y-59889804D01*
X84929960Y-59950629D01*
X84929955Y-59950630D01*
X84929954Y-59950631D01*
X84886920Y-59966682D01*
X84843587Y-59974500D01*
X74229500Y-59974500D01*
X74162461Y-59954815D01*
X74116706Y-59902011D01*
X74105500Y-59850500D01*
X74105500Y-36729500D01*
X74125185Y-36662461D01*
X74177989Y-36616706D01*
X74229500Y-36605500D01*
X88984942Y-36605500D01*
X89051981Y-36625185D01*
G37*
%TD.AperFunction*%
%TA.AperFunction,Conductor*%
G36*
X111977577Y-45052209D02*
G01*
X112028831Y-45090170D01*
X112063901Y-45134146D01*
X112140880Y-45230674D01*
X113919326Y-47009120D01*
X113947882Y-47031893D01*
X113987583Y-47063553D01*
X114027723Y-47120741D01*
X114030573Y-47190553D01*
X113995228Y-47250823D01*
X113932909Y-47282416D01*
X113910270Y-47284500D01*
X112069500Y-47284500D01*
X112002461Y-47264815D01*
X111956706Y-47212011D01*
X111945500Y-47160500D01*
X111945500Y-45894696D01*
X111945499Y-45894692D01*
X111910913Y-45587726D01*
X111910910Y-45587708D01*
X111842168Y-45286528D01*
X111842166Y-45286522D01*
X111836978Y-45271696D01*
X111814842Y-45208437D01*
X111811280Y-45138660D01*
X111846009Y-45078032D01*
X111908002Y-45045805D01*
X111977577Y-45052209D01*
G37*
%TD.AperFunction*%
%TA.AperFunction,Conductor*%
G36*
X111387539Y-41705185D02*
G01*
X111433294Y-41757989D01*
X111444500Y-41809500D01*
X111444500Y-43549471D01*
X111479086Y-43856437D01*
X111479089Y-43856455D01*
X111547831Y-44157635D01*
X111548797Y-44160987D01*
X111547780Y-44161279D01*
X111551121Y-44226617D01*
X111516398Y-44287248D01*
X111454407Y-44319480D01*
X111384831Y-44313082D01*
X111329759Y-44270083D01*
X111325521Y-44263776D01*
X111260934Y-44160987D01*
X111191735Y-44050857D01*
X110999120Y-43809326D01*
X109150674Y-41960880D01*
X109082416Y-41906446D01*
X109042277Y-41849259D01*
X109039427Y-41779447D01*
X109074772Y-41719177D01*
X109137091Y-41687584D01*
X109159730Y-41685500D01*
X111320500Y-41685500D01*
X111387539Y-41705185D01*
G37*
%TD.AperFunction*%
%TA.AperFunction,Conductor*%
G36*
X174943039Y-30019685D02*
G01*
X174988794Y-30072489D01*
X175000000Y-30124000D01*
X175000000Y-154876000D01*
X174980315Y-154943039D01*
X174927511Y-154988794D01*
X174876000Y-155000000D01*
X55124000Y-155000000D01*
X55056961Y-154980315D01*
X55011206Y-154927511D01*
X55000000Y-154876000D01*
X55000000Y-146004155D01*
X150077846Y-146004155D01*
X167960274Y-146004155D01*
X167960274Y-130528139D01*
X150077846Y-130528139D01*
X150077846Y-146004155D01*
X55000000Y-146004155D01*
X55000000Y-142644996D01*
X85939584Y-142644996D01*
X85939584Y-142645003D01*
X85959229Y-142982298D01*
X85959230Y-142982309D01*
X86017896Y-143315017D01*
X86017899Y-143315031D01*
X86114801Y-143638710D01*
X86248621Y-143948939D01*
X86248627Y-143948952D01*
X86417560Y-144241553D01*
X86619318Y-144512561D01*
X86619323Y-144512567D01*
X86739069Y-144639489D01*
X86851183Y-144758323D01*
X86851189Y-144758328D01*
X86851191Y-144758330D01*
X87110001Y-144975499D01*
X87110006Y-144975502D01*
X87392292Y-145161164D01*
X87694224Y-145312800D01*
X88011717Y-145428358D01*
X88340480Y-145506276D01*
X88676065Y-145545500D01*
X88676072Y-145545500D01*
X89013928Y-145545500D01*
X89013935Y-145545500D01*
X89349520Y-145506276D01*
X89380887Y-145498842D01*
X89409483Y-145495500D01*
X92889468Y-145495500D01*
X92889469Y-145495499D01*
X93046356Y-145477822D01*
X93196437Y-145460913D01*
X93196442Y-145460912D01*
X93196452Y-145460911D01*
X93497636Y-145392168D01*
X93789229Y-145290135D01*
X94067565Y-145156095D01*
X94329143Y-144991735D01*
X94570674Y-144799120D01*
X94789120Y-144580674D01*
X94981735Y-144339143D01*
X95146095Y-144077565D01*
X95280135Y-143799229D01*
X95382168Y-143507636D01*
X95450911Y-143206452D01*
X95453816Y-143180674D01*
X95481029Y-142939143D01*
X95485500Y-142899465D01*
X95485500Y-142590535D01*
X95463945Y-142399230D01*
X95450913Y-142283562D01*
X95450910Y-142283544D01*
X95382168Y-141982364D01*
X95382164Y-141982352D01*
X95280137Y-141690777D01*
X95280135Y-141690771D01*
X95146095Y-141412435D01*
X94981735Y-141150857D01*
X94789120Y-140909326D01*
X94570674Y-140690880D01*
X94329143Y-140498265D01*
X94067565Y-140333905D01*
X94067562Y-140333903D01*
X93789236Y-140199868D01*
X93789222Y-140199862D01*
X93497647Y-140097835D01*
X93497635Y-140097831D01*
X93196455Y-140029089D01*
X93196437Y-140029086D01*
X92889471Y-139994500D01*
X92889465Y-139994500D01*
X90059612Y-139994500D01*
X90003960Y-139981310D01*
X89995776Y-139977200D01*
X89995775Y-139977199D01*
X89995772Y-139977198D01*
X89678284Y-139861642D01*
X89678281Y-139861641D01*
X89451639Y-139807926D01*
X89349520Y-139783724D01*
X89013935Y-139744500D01*
X88676065Y-139744500D01*
X88340480Y-139783724D01*
X88011718Y-139861641D01*
X88011715Y-139861642D01*
X87694222Y-139977200D01*
X87694216Y-139977203D01*
X87392295Y-140128834D01*
X87110001Y-140314500D01*
X86851191Y-140531669D01*
X86851181Y-140531679D01*
X86619323Y-140777432D01*
X86619318Y-140777438D01*
X86417560Y-141048446D01*
X86248627Y-141341047D01*
X86248621Y-141341060D01*
X86114801Y-141651289D01*
X86017899Y-141974968D01*
X86017896Y-141974982D01*
X85959230Y-142307690D01*
X85959229Y-142307701D01*
X85939584Y-142644996D01*
X55000000Y-142644996D01*
X55000000Y-133444996D01*
X85979584Y-133444996D01*
X85979584Y-133445003D01*
X85999229Y-133782298D01*
X85999230Y-133782309D01*
X86057896Y-134115017D01*
X86057899Y-134115031D01*
X86154801Y-134438710D01*
X86288621Y-134748939D01*
X86288627Y-134748952D01*
X86457560Y-135041553D01*
X86659318Y-135312561D01*
X86659323Y-135312567D01*
X86779069Y-135439489D01*
X86891183Y-135558323D01*
X86891189Y-135558328D01*
X86891191Y-135558330D01*
X87150001Y-135775499D01*
X87150006Y-135775502D01*
X87432292Y-135961164D01*
X87734224Y-136112800D01*
X88051717Y-136228358D01*
X88380480Y-136306276D01*
X88716065Y-136345500D01*
X88716072Y-136345500D01*
X89053928Y-136345500D01*
X89053935Y-136345500D01*
X89389520Y-136306276D01*
X89718283Y-136228358D01*
X89788015Y-136202977D01*
X89830424Y-136195500D01*
X93689468Y-136195500D01*
X93689469Y-136195499D01*
X93846356Y-136177822D01*
X93996437Y-136160913D01*
X93996442Y-136160912D01*
X93996452Y-136160911D01*
X94297636Y-136092168D01*
X94589229Y-135990135D01*
X94867565Y-135856095D01*
X95129143Y-135691735D01*
X95370674Y-135499120D01*
X95589120Y-135280674D01*
X95781735Y-135039143D01*
X95946095Y-134777565D01*
X96080135Y-134499229D01*
X96182168Y-134207636D01*
X96250911Y-133906452D01*
X96262456Y-133803992D01*
X96285499Y-133599471D01*
X96285500Y-133599467D01*
X96285500Y-133290532D01*
X96285499Y-133290528D01*
X96250913Y-132983562D01*
X96250910Y-132983544D01*
X96245733Y-132960864D01*
X96182168Y-132682364D01*
X96080135Y-132390771D01*
X95946095Y-132112435D01*
X95781735Y-131850857D01*
X95589120Y-131609326D01*
X95370674Y-131390880D01*
X95129143Y-131198265D01*
X94867565Y-131033905D01*
X94867562Y-131033903D01*
X94589236Y-130899868D01*
X94589222Y-130899862D01*
X94297647Y-130797835D01*
X94297635Y-130797831D01*
X93996455Y-130729089D01*
X93996437Y-130729086D01*
X93689471Y-130694500D01*
X93689465Y-130694500D01*
X89830424Y-130694500D01*
X89788015Y-130687022D01*
X89718283Y-130661642D01*
X89718282Y-130661641D01*
X89718280Y-130661641D01*
X89537653Y-130618832D01*
X89389520Y-130583724D01*
X89053935Y-130544500D01*
X88716065Y-130544500D01*
X88392047Y-130582372D01*
X88380480Y-130583724D01*
X88051718Y-130661641D01*
X88051715Y-130661642D01*
X87734222Y-130777200D01*
X87734216Y-130777203D01*
X87432295Y-130928834D01*
X87150001Y-131114500D01*
X86891191Y-131331669D01*
X86891181Y-131331679D01*
X86659323Y-131577432D01*
X86659318Y-131577438D01*
X86457560Y-131848446D01*
X86288627Y-132141047D01*
X86288621Y-132141060D01*
X86154801Y-132451289D01*
X86057899Y-132774968D01*
X86057896Y-132774982D01*
X85999230Y-133107690D01*
X85999229Y-133107701D01*
X85979584Y-133444996D01*
X55000000Y-133444996D01*
X55000000Y-35330528D01*
X68604500Y-35330528D01*
X68604500Y-112129471D01*
X68639086Y-112436437D01*
X68639089Y-112436455D01*
X68707831Y-112737635D01*
X68707835Y-112737647D01*
X68747449Y-112850855D01*
X68747449Y-112850857D01*
X68747450Y-112850857D01*
X68809865Y-113029231D01*
X68943902Y-113307562D01*
X68943904Y-113307565D01*
X69108265Y-113569143D01*
X69300880Y-113810674D01*
X73289326Y-117799120D01*
X73530857Y-117991735D01*
X73792435Y-118156095D01*
X74070770Y-118290135D01*
X74095964Y-118298951D01*
X74146352Y-118316583D01*
X74146353Y-118316583D01*
X74262621Y-118357266D01*
X74362364Y-118392168D01*
X74663548Y-118460911D01*
X74663554Y-118460911D01*
X74663562Y-118460913D01*
X74868206Y-118483970D01*
X74970529Y-118495499D01*
X74970532Y-118495500D01*
X74970535Y-118495500D01*
X117299468Y-118495500D01*
X117299468Y-118495499D01*
X117556616Y-118466526D01*
X117625438Y-118478580D01*
X117676818Y-118525929D01*
X117694500Y-118589746D01*
X117694500Y-120110353D01*
X117674815Y-120177392D01*
X117669769Y-120184661D01*
X117657773Y-120200685D01*
X117657770Y-120200690D01*
X117520635Y-120451833D01*
X117420628Y-120719962D01*
X117359804Y-120999566D01*
X117344500Y-121213549D01*
X117344500Y-122070500D01*
X117324815Y-122137539D01*
X117272011Y-122183294D01*
X117220500Y-122194500D01*
X113858097Y-122194500D01*
X113798672Y-122179333D01*
X113778161Y-122168133D01*
X113510046Y-122068131D01*
X113510043Y-122068130D01*
X113510037Y-122068128D01*
X113230433Y-122007304D01*
X113016450Y-121992000D01*
X113016448Y-121992000D01*
X110873552Y-121992000D01*
X110873549Y-121992000D01*
X110659566Y-122007304D01*
X110379962Y-122068128D01*
X110111832Y-122168135D01*
X110107810Y-122169973D01*
X110107196Y-122168628D01*
X110054794Y-122182000D01*
X104897793Y-122182000D01*
X104869196Y-122178657D01*
X104832141Y-122169874D01*
X104832126Y-122169872D01*
X104817239Y-122168132D01*
X104508111Y-122132000D01*
X104181889Y-122132000D01*
X103898375Y-122165138D01*
X103857873Y-122169872D01*
X103857858Y-122169874D01*
X103820804Y-122178657D01*
X103792207Y-122182000D01*
X99897793Y-122182000D01*
X99869196Y-122178657D01*
X99832141Y-122169874D01*
X99832126Y-122169872D01*
X99817239Y-122168132D01*
X99508111Y-122132000D01*
X99181889Y-122132000D01*
X98898375Y-122165138D01*
X98857873Y-122169872D01*
X98857858Y-122169874D01*
X98820804Y-122178657D01*
X98792207Y-122182000D01*
X94897793Y-122182000D01*
X94869196Y-122178657D01*
X94832141Y-122169874D01*
X94832126Y-122169872D01*
X94817239Y-122168132D01*
X94508111Y-122132000D01*
X94181889Y-122132000D01*
X93898375Y-122165138D01*
X93857873Y-122169872D01*
X93857858Y-122169874D01*
X93820804Y-122178657D01*
X93792207Y-122182000D01*
X87421726Y-122182000D01*
X87380773Y-122175042D01*
X87365914Y-122169843D01*
X87365906Y-122169840D01*
X87144543Y-122119315D01*
X87051584Y-122098098D01*
X87051581Y-122098097D01*
X87051569Y-122098095D01*
X86731210Y-122062000D01*
X86731204Y-122062000D01*
X85958796Y-122062000D01*
X85958789Y-122062000D01*
X85638430Y-122098095D01*
X85638416Y-122098098D01*
X85324092Y-122169840D01*
X85324090Y-122169841D01*
X85019774Y-122276325D01*
X84729299Y-122416211D01*
X84456308Y-122587743D01*
X84204238Y-122788761D01*
X83976261Y-123016738D01*
X83775243Y-123268808D01*
X83603711Y-123541799D01*
X83463825Y-123832274D01*
X83357341Y-124136590D01*
X83357340Y-124136592D01*
X83285598Y-124450916D01*
X83285595Y-124450930D01*
X83249500Y-124771289D01*
X83249500Y-125093710D01*
X83285595Y-125414069D01*
X83285598Y-125414083D01*
X83357340Y-125728407D01*
X83357341Y-125728409D01*
X83463825Y-126032725D01*
X83603711Y-126323200D01*
X83603713Y-126323203D01*
X83775244Y-126596193D01*
X83976262Y-126848262D01*
X84204238Y-127076238D01*
X84456307Y-127277256D01*
X84729297Y-127448787D01*
X85019776Y-127588675D01*
X85324092Y-127695159D01*
X85638416Y-127766902D01*
X85638425Y-127766903D01*
X85638430Y-127766904D01*
X85852002Y-127790967D01*
X85958790Y-127802999D01*
X85958793Y-127803000D01*
X85958796Y-127803000D01*
X86731207Y-127803000D01*
X86731208Y-127802999D01*
X86894940Y-127784551D01*
X87051569Y-127766904D01*
X87051572Y-127766903D01*
X87051584Y-127766902D01*
X87365908Y-127695159D01*
X87376183Y-127691563D01*
X87380773Y-127689958D01*
X87421726Y-127683000D01*
X93792207Y-127683000D01*
X93820804Y-127686343D01*
X93857858Y-127695125D01*
X93857865Y-127695126D01*
X93857874Y-127695128D01*
X94181889Y-127733000D01*
X94181896Y-127733000D01*
X94508104Y-127733000D01*
X94508111Y-127733000D01*
X94832126Y-127695128D01*
X94832135Y-127695125D01*
X94832141Y-127695125D01*
X94869196Y-127686343D01*
X94897793Y-127683000D01*
X98792207Y-127683000D01*
X98820804Y-127686343D01*
X98857858Y-127695125D01*
X98857865Y-127695126D01*
X98857874Y-127695128D01*
X99181889Y-127733000D01*
X99181896Y-127733000D01*
X99508104Y-127733000D01*
X99508111Y-127733000D01*
X99832126Y-127695128D01*
X99832135Y-127695125D01*
X99832141Y-127695125D01*
X99869196Y-127686343D01*
X99897793Y-127683000D01*
X103792207Y-127683000D01*
X103820804Y-127686343D01*
X103857858Y-127695125D01*
X103857865Y-127695126D01*
X103857874Y-127695128D01*
X104181889Y-127733000D01*
X104181896Y-127733000D01*
X104508104Y-127733000D01*
X104508111Y-127733000D01*
X104832126Y-127695128D01*
X104832135Y-127695125D01*
X104832141Y-127695125D01*
X104869196Y-127686343D01*
X104897793Y-127683000D01*
X109763965Y-127683000D01*
X109831004Y-127702685D01*
X109876759Y-127755489D01*
X109886703Y-127824647D01*
X109857678Y-127888203D01*
X109851646Y-127894681D01*
X109692148Y-128054178D01*
X109485353Y-128313492D01*
X109308891Y-128594329D01*
X109164986Y-128893151D01*
X109055443Y-129206205D01*
X109055439Y-129206217D01*
X108981636Y-129529571D01*
X108981634Y-129529587D01*
X108944500Y-129859158D01*
X108944500Y-130190841D01*
X108974446Y-130456616D01*
X108962392Y-130525438D01*
X108915043Y-130576818D01*
X108851226Y-130594500D01*
X104897793Y-130594500D01*
X104869196Y-130591157D01*
X104832141Y-130582374D01*
X104832126Y-130582372D01*
X104508111Y-130544500D01*
X104181889Y-130544500D01*
X103898375Y-130577638D01*
X103857873Y-130582372D01*
X103857858Y-130582374D01*
X103820804Y-130591157D01*
X103792207Y-130594500D01*
X101100528Y-130594500D01*
X100793562Y-130629086D01*
X100793544Y-130629089D01*
X100492364Y-130697831D01*
X100492352Y-130697835D01*
X100200777Y-130799862D01*
X100200763Y-130799868D01*
X100109575Y-130843783D01*
X100109574Y-130843783D01*
X99922439Y-130933901D01*
X99660858Y-131098264D01*
X99419326Y-131290879D01*
X99100879Y-131609326D01*
X98908264Y-131850858D01*
X98743902Y-132112437D01*
X98609865Y-132390768D01*
X98507832Y-132682366D01*
X98439089Y-132983548D01*
X98439086Y-132983562D01*
X98404500Y-133290528D01*
X98404500Y-133599471D01*
X98439086Y-133906437D01*
X98439089Y-133906451D01*
X98507832Y-134207633D01*
X98609865Y-134499231D01*
X98743902Y-134777562D01*
X98754955Y-134795153D01*
X98908265Y-135039143D01*
X99004304Y-135159572D01*
X99062375Y-135232391D01*
X99100880Y-135280674D01*
X99319326Y-135499120D01*
X99560857Y-135691735D01*
X99822435Y-135856096D01*
X100100770Y-135990135D01*
X100392364Y-136092167D01*
X100693548Y-136160911D01*
X100693557Y-136160912D01*
X100693562Y-136160913D01*
X100898206Y-136183970D01*
X101000529Y-136195499D01*
X101000532Y-136195500D01*
X101000535Y-136195500D01*
X101309468Y-136195500D01*
X101309469Y-136195499D01*
X101466356Y-136177822D01*
X101616437Y-136160913D01*
X101616440Y-136160912D01*
X101616452Y-136160911D01*
X101889412Y-136098609D01*
X101917005Y-136095500D01*
X103792207Y-136095500D01*
X103820804Y-136098843D01*
X103857858Y-136107625D01*
X103857865Y-136107626D01*
X103857874Y-136107628D01*
X104181889Y-136145500D01*
X104181896Y-136145500D01*
X104508104Y-136145500D01*
X104508111Y-136145500D01*
X104832126Y-136107628D01*
X104832135Y-136107625D01*
X104832141Y-136107625D01*
X104869196Y-136098843D01*
X104897793Y-136095500D01*
X110599468Y-136095500D01*
X110599469Y-136095499D01*
X110756356Y-136077822D01*
X110906437Y-136060913D01*
X110906442Y-136060912D01*
X110906452Y-136060911D01*
X111207636Y-135992168D01*
X111423645Y-135916583D01*
X111475352Y-135898489D01*
X111499228Y-135890136D01*
X111499228Y-135890135D01*
X111499230Y-135890135D01*
X111777565Y-135756096D01*
X112039143Y-135591735D01*
X112280674Y-135399120D01*
X113999120Y-133680674D01*
X114191735Y-133439143D01*
X114356095Y-133177566D01*
X114389740Y-133107701D01*
X114460453Y-132960865D01*
X114460453Y-132960864D01*
X114490135Y-132899228D01*
X114490136Y-132899227D01*
X114497372Y-132878547D01*
X114538093Y-132821771D01*
X114603045Y-132796022D01*
X114614414Y-132795500D01*
X117237918Y-132795500D01*
X117304957Y-132815185D01*
X117350712Y-132867989D01*
X117360166Y-132898729D01*
X117417472Y-133236009D01*
X117417474Y-133236017D01*
X117465676Y-133403328D01*
X117513879Y-133570644D01*
X117647145Y-133892376D01*
X117815595Y-134197164D01*
X118017112Y-134481176D01*
X118249161Y-134740839D01*
X118508824Y-134972888D01*
X118792836Y-135174405D01*
X119097624Y-135342855D01*
X119419356Y-135476121D01*
X119753987Y-135572527D01*
X120097307Y-135630859D01*
X120445000Y-135650385D01*
X120792693Y-135630859D01*
X121136013Y-135572527D01*
X121470644Y-135476121D01*
X121792376Y-135342855D01*
X122097164Y-135174405D01*
X122381176Y-134972888D01*
X122640839Y-134740839D01*
X122872888Y-134481176D01*
X123028987Y-134261173D01*
X123083834Y-134217891D01*
X123153376Y-134211131D01*
X123215533Y-134243041D01*
X123229579Y-134258882D01*
X123296057Y-134348177D01*
X123519923Y-134585462D01*
X123519929Y-134585467D01*
X123519930Y-134585468D01*
X123519931Y-134585469D01*
X123769815Y-134795147D01*
X123769818Y-134795149D01*
X123769823Y-134795153D01*
X124042377Y-134974414D01*
X124333899Y-135120822D01*
X124640446Y-135232396D01*
X124640452Y-135232397D01*
X124640454Y-135232398D01*
X124957858Y-135307625D01*
X124957865Y-135307626D01*
X124957874Y-135307628D01*
X125281889Y-135345500D01*
X125281896Y-135345500D01*
X125608104Y-135345500D01*
X125608111Y-135345500D01*
X125932126Y-135307628D01*
X125932135Y-135307625D01*
X125932141Y-135307625D01*
X126188176Y-135246942D01*
X126249554Y-135232396D01*
X126556101Y-135120822D01*
X126847623Y-134974414D01*
X127120177Y-134795153D01*
X127370077Y-134585462D01*
X127593943Y-134348177D01*
X127788749Y-134086508D01*
X127951859Y-133803992D01*
X128081069Y-133504451D01*
X128174630Y-133191934D01*
X128174632Y-133191924D01*
X128226465Y-132897968D01*
X128257492Y-132835365D01*
X128317439Y-132799474D01*
X128348581Y-132795500D01*
X130395983Y-132795500D01*
X130436937Y-132802458D01*
X130492131Y-132821771D01*
X130678717Y-132887060D01*
X131002075Y-132960864D01*
X131331659Y-132997999D01*
X131331660Y-132998000D01*
X131331663Y-132998000D01*
X131758340Y-132998000D01*
X131758340Y-132997999D01*
X132087925Y-132960864D01*
X132411283Y-132887060D01*
X132724345Y-132777515D01*
X133023173Y-132633607D01*
X133304009Y-132457146D01*
X133563322Y-132250351D01*
X133797851Y-132015822D01*
X134004646Y-131756509D01*
X134181107Y-131475673D01*
X134325015Y-131176845D01*
X134434560Y-130863783D01*
X134508364Y-130540425D01*
X134509749Y-130528139D01*
X134524320Y-130398813D01*
X134551386Y-130334399D01*
X134608981Y-130294844D01*
X134678818Y-130292706D01*
X134735220Y-130325014D01*
X135074591Y-130664386D01*
X135108075Y-130725707D01*
X135110129Y-130738181D01*
X135129087Y-130906439D01*
X135129089Y-130906455D01*
X135186279Y-131157019D01*
X135189388Y-131184611D01*
X135189388Y-134986745D01*
X135186554Y-135013103D01*
X135154693Y-135159564D01*
X135154692Y-135159571D01*
X135139388Y-135373549D01*
X135139388Y-137116450D01*
X135154692Y-137330431D01*
X135186554Y-137476894D01*
X135189388Y-137503253D01*
X135189388Y-139870500D01*
X135169703Y-139937539D01*
X135116899Y-139983294D01*
X135065388Y-139994500D01*
X100200528Y-139994500D01*
X99893562Y-140029086D01*
X99893544Y-140029089D01*
X99592364Y-140097831D01*
X99592352Y-140097835D01*
X99300777Y-140199862D01*
X99300763Y-140199868D01*
X99022437Y-140333903D01*
X98760858Y-140498264D01*
X98519326Y-140690879D01*
X98300879Y-140909326D01*
X98108264Y-141150858D01*
X97943903Y-141412437D01*
X97809868Y-141690763D01*
X97809862Y-141690777D01*
X97707835Y-141982352D01*
X97707831Y-141982364D01*
X97639089Y-142283544D01*
X97639086Y-142283562D01*
X97604500Y-142590528D01*
X97604500Y-142899471D01*
X97639086Y-143206437D01*
X97639089Y-143206455D01*
X97707831Y-143507635D01*
X97707835Y-143507647D01*
X97809862Y-143799222D01*
X97809868Y-143799236D01*
X97943903Y-144077562D01*
X97943905Y-144077565D01*
X98108265Y-144339143D01*
X98300880Y-144580674D01*
X98519326Y-144799120D01*
X98760857Y-144991735D01*
X99022435Y-145156095D01*
X99300771Y-145290135D01*
X99300777Y-145290137D01*
X99592352Y-145392164D01*
X99592364Y-145392168D01*
X99893548Y-145460911D01*
X99893554Y-145460911D01*
X99893562Y-145460913D01*
X100098206Y-145483970D01*
X100200529Y-145495499D01*
X100200532Y-145495500D01*
X100200535Y-145495500D01*
X136699468Y-145495500D01*
X136699469Y-145495499D01*
X136856356Y-145477822D01*
X137006437Y-145460913D01*
X137006442Y-145460912D01*
X137006452Y-145460911D01*
X137307636Y-145392168D01*
X137534456Y-145312800D01*
X137599230Y-145290135D01*
X137877565Y-145156096D01*
X138139143Y-144991735D01*
X138380674Y-144799120D01*
X139999120Y-143180674D01*
X140191735Y-142939143D01*
X140356096Y-142677565D01*
X140490135Y-142399230D01*
X140592167Y-142107636D01*
X140660911Y-141806452D01*
X140695500Y-141499465D01*
X140695500Y-141190535D01*
X140691167Y-141152085D01*
X140690388Y-141138203D01*
X140690388Y-137503253D01*
X140693222Y-137476894D01*
X140725083Y-137330431D01*
X140725084Y-137330428D01*
X140740388Y-137116448D01*
X140740388Y-135373552D01*
X140725084Y-135159572D01*
X140699411Y-135041553D01*
X140693222Y-135013103D01*
X140690388Y-134986745D01*
X140690388Y-130385420D01*
X140690387Y-130385416D01*
X140655801Y-130078450D01*
X140655798Y-130078432D01*
X140598609Y-129827868D01*
X140595500Y-129800276D01*
X140595500Y-129390532D01*
X140595499Y-129390528D01*
X140560913Y-129083562D01*
X140560910Y-129083544D01*
X140492168Y-128782364D01*
X140492166Y-128782358D01*
X140488762Y-128772630D01*
X140464822Y-128704214D01*
X140390135Y-128490770D01*
X140256096Y-128212435D01*
X140256095Y-128212433D01*
X140256092Y-128212427D01*
X140160008Y-128059512D01*
X140141007Y-127992276D01*
X140161374Y-127925441D01*
X140214642Y-127880226D01*
X140276809Y-127870771D01*
X140276825Y-127870512D01*
X140276825Y-127870500D01*
X140276826Y-127870500D01*
X140276838Y-127870290D01*
X140279106Y-127870422D01*
X140279393Y-127870378D01*
X140280433Y-127870500D01*
X140280441Y-127870500D01*
X140609560Y-127870500D01*
X140609567Y-127870500D01*
X140936474Y-127832290D01*
X140936483Y-127832287D01*
X140936489Y-127832287D01*
X141212370Y-127766901D01*
X141256736Y-127756386D01*
X141566020Y-127643816D01*
X141566023Y-127643814D01*
X141566027Y-127643813D01*
X141675816Y-127588674D01*
X141860144Y-127496101D01*
X142135131Y-127315240D01*
X142387261Y-127103677D01*
X142613126Y-126864274D01*
X142809671Y-126600269D01*
X142974238Y-126315231D01*
X143104601Y-126013016D01*
X143198997Y-125697709D01*
X143256151Y-125373576D01*
X143275288Y-125045000D01*
X143256151Y-124716424D01*
X143198997Y-124392291D01*
X143104601Y-124076984D01*
X142974238Y-123774769D01*
X142809671Y-123489731D01*
X142809670Y-123489729D01*
X142613129Y-123225729D01*
X142613124Y-123225723D01*
X142503911Y-123109965D01*
X142387261Y-122986323D01*
X142387254Y-122986317D01*
X142387252Y-122986315D01*
X142135138Y-122774765D01*
X142135133Y-122774761D01*
X142135131Y-122774760D01*
X141860144Y-122593899D01*
X141858426Y-122593036D01*
X141566027Y-122446186D01*
X141566021Y-122446184D01*
X141256748Y-122333618D01*
X141256727Y-122333611D01*
X140936489Y-122257712D01*
X140936474Y-122257710D01*
X140609567Y-122219500D01*
X140280433Y-122219500D01*
X139994389Y-122252933D01*
X139953525Y-122257710D01*
X139953523Y-122257710D01*
X139812398Y-122291158D01*
X139783802Y-122294500D01*
X138919500Y-122294500D01*
X138852461Y-122274815D01*
X138806706Y-122222011D01*
X138795500Y-122170500D01*
X138795500Y-121290532D01*
X138795499Y-121290528D01*
X138760913Y-120983562D01*
X138760910Y-120983544D01*
X138692168Y-120682364D01*
X138692164Y-120682352D01*
X138590137Y-120390777D01*
X138590135Y-120390771D01*
X138522875Y-120251104D01*
X138522875Y-120251103D01*
X138456099Y-120112440D01*
X138454788Y-120110353D01*
X138291735Y-119850857D01*
X138099121Y-119609326D01*
X136360674Y-117870880D01*
X136119143Y-117678265D01*
X135857565Y-117513904D01*
X135857562Y-117513902D01*
X135579231Y-117379865D01*
X135462852Y-117339143D01*
X135462852Y-117339142D01*
X135462850Y-117339142D01*
X135287647Y-117277835D01*
X135287635Y-117277831D01*
X134986455Y-117209089D01*
X134986437Y-117209086D01*
X134679471Y-117174500D01*
X134679465Y-117174500D01*
X128519500Y-117174500D01*
X128452461Y-117154815D01*
X128406706Y-117102011D01*
X128395500Y-117050500D01*
X128395500Y-115335656D01*
X128415185Y-115268617D01*
X128431819Y-115247975D01*
X130247975Y-113431819D01*
X130309298Y-113398334D01*
X130335656Y-113395500D01*
X161299468Y-113395500D01*
X161299469Y-113395499D01*
X161456356Y-113377822D01*
X161606437Y-113360913D01*
X161606442Y-113360912D01*
X161606452Y-113360911D01*
X161907636Y-113292168D01*
X162123645Y-113216583D01*
X162175352Y-113198489D01*
X162199228Y-113190136D01*
X162199228Y-113190135D01*
X162199230Y-113190135D01*
X162477565Y-113056096D01*
X162739143Y-112891735D01*
X162980674Y-112699120D01*
X165999120Y-109680674D01*
X166191735Y-109439143D01*
X166356096Y-109177565D01*
X166490135Y-108899230D01*
X166556113Y-108710674D01*
X166592168Y-108607636D01*
X166660911Y-108306452D01*
X166695500Y-107999465D01*
X166695500Y-69188454D01*
X166677183Y-69025886D01*
X166660913Y-68881481D01*
X166660910Y-68881463D01*
X166638113Y-68781581D01*
X166592168Y-68580283D01*
X166551299Y-68463485D01*
X166551299Y-68463484D01*
X166551299Y-68463483D01*
X166490137Y-68288695D01*
X166490135Y-68288689D01*
X166356096Y-68010354D01*
X166191735Y-67748776D01*
X165999121Y-67507245D01*
X159237755Y-60745880D01*
X158996224Y-60553265D01*
X158734646Y-60388904D01*
X158734643Y-60388902D01*
X158456312Y-60254865D01*
X158369532Y-60224500D01*
X158164714Y-60152831D01*
X157863536Y-60084089D01*
X157863518Y-60084086D01*
X157556552Y-60049500D01*
X157556546Y-60049500D01*
X156969604Y-60049500D01*
X156941008Y-60046158D01*
X156695824Y-59988048D01*
X156654598Y-59983229D01*
X156366023Y-59949500D01*
X156033977Y-59949500D01*
X155745402Y-59983229D01*
X155704176Y-59988048D01*
X155704174Y-59988048D01*
X155458992Y-60046158D01*
X155430396Y-60049500D01*
X153529656Y-60049500D01*
X153462617Y-60029815D01*
X153416862Y-59977011D01*
X153406918Y-59907853D01*
X153435943Y-59844297D01*
X153441975Y-59837819D01*
X154995764Y-58284030D01*
X156799121Y-56480674D01*
X156991735Y-56239143D01*
X157156096Y-55977565D01*
X157156099Y-55977559D01*
X157290130Y-55699240D01*
X157290131Y-55699237D01*
X157290135Y-55699229D01*
X157392168Y-55407636D01*
X157460911Y-55106452D01*
X157472023Y-55007832D01*
X157495500Y-54799465D01*
X157495500Y-49490535D01*
X157460911Y-49183548D01*
X157392168Y-48882364D01*
X157290135Y-48590771D01*
X157156095Y-48312435D01*
X156991735Y-48050857D01*
X156799120Y-47809326D01*
X156580674Y-47590880D01*
X156339143Y-47398265D01*
X156077565Y-47233905D01*
X156077562Y-47233903D01*
X155799236Y-47099868D01*
X155799222Y-47099862D01*
X155507647Y-46997835D01*
X155507641Y-46997833D01*
X155470827Y-46989430D01*
X155409849Y-46955320D01*
X155376993Y-46893657D01*
X155376306Y-46890070D01*
X155369571Y-46851875D01*
X155369570Y-46851873D01*
X155369569Y-46851864D01*
X155269326Y-46517029D01*
X155130889Y-46196096D01*
X155057022Y-46068155D01*
X154956129Y-45893402D01*
X154747415Y-45613050D01*
X154747410Y-45613044D01*
X154631433Y-45490117D01*
X154507558Y-45358817D01*
X154245185Y-45138660D01*
X154239813Y-45134152D01*
X154239805Y-45134146D01*
X153947796Y-44942088D01*
X153635458Y-44785226D01*
X153635452Y-44785223D01*
X153307012Y-44665681D01*
X153307009Y-44665680D01*
X152966915Y-44585077D01*
X152923519Y-44580004D01*
X152619759Y-44544500D01*
X152270241Y-44544500D01*
X151966480Y-44580004D01*
X151923085Y-44585077D01*
X151923083Y-44585077D01*
X151582990Y-44665680D01*
X151582987Y-44665681D01*
X151251158Y-44786457D01*
X151250825Y-44785542D01*
X151207438Y-44794500D01*
X147182562Y-44794500D01*
X147139174Y-44785542D01*
X147138842Y-44786457D01*
X146807012Y-44665681D01*
X146807009Y-44665680D01*
X146466915Y-44585077D01*
X146423519Y-44580004D01*
X146119759Y-44544500D01*
X145770241Y-44544500D01*
X145466480Y-44580004D01*
X145423085Y-44585077D01*
X145423083Y-44585077D01*
X145082990Y-44665680D01*
X145082987Y-44665681D01*
X144751158Y-44786457D01*
X144750825Y-44785542D01*
X144707438Y-44794500D01*
X140197970Y-44794500D01*
X140130931Y-44774815D01*
X140085176Y-44722011D01*
X140074180Y-44677709D01*
X140073933Y-44673467D01*
X140071024Y-44623516D01*
X140013365Y-44296515D01*
X139918133Y-43978419D01*
X139812748Y-43734111D01*
X139804271Y-43664761D01*
X139812747Y-43635891D01*
X139918133Y-43391581D01*
X140013365Y-43073485D01*
X140071024Y-42746484D01*
X140090331Y-42415000D01*
X140071024Y-42083516D01*
X140013365Y-41756515D01*
X139918133Y-41438419D01*
X139786617Y-41133530D01*
X139620594Y-40845970D01*
X139620593Y-40845968D01*
X139422321Y-40579643D01*
X139422314Y-40579635D01*
X139422310Y-40579629D01*
X139194447Y-40338107D01*
X139032153Y-40201926D01*
X138940087Y-40124674D01*
X138940079Y-40124668D01*
X138662669Y-39942212D01*
X138365946Y-39793192D01*
X138365940Y-39793189D01*
X138053930Y-39679627D01*
X138053909Y-39679620D01*
X137730838Y-39603050D01*
X137730823Y-39603048D01*
X137401023Y-39564500D01*
X137068977Y-39564500D01*
X136780402Y-39598229D01*
X136739176Y-39603048D01*
X136739161Y-39603050D01*
X136416090Y-39679620D01*
X136416069Y-39679627D01*
X136104059Y-39793189D01*
X136104053Y-39793192D01*
X135807330Y-39942212D01*
X135529920Y-40124668D01*
X135529912Y-40124674D01*
X135323936Y-40297508D01*
X135275553Y-40338107D01*
X135047690Y-40579629D01*
X135047687Y-40579632D01*
X135047685Y-40579635D01*
X135047678Y-40579643D01*
X134849406Y-40845968D01*
X134683385Y-41133525D01*
X134683379Y-41133538D01*
X134647234Y-41217332D01*
X134602606Y-41271092D01*
X134535998Y-41292190D01*
X134468557Y-41273928D01*
X134445694Y-41255899D01*
X124990673Y-31800879D01*
X124929334Y-31751963D01*
X124749143Y-31608265D01*
X124487565Y-31443904D01*
X124487562Y-31443902D01*
X124209237Y-31309868D01*
X124209223Y-31309862D01*
X124133646Y-31283416D01*
X124133645Y-31283416D01*
X123917636Y-31207832D01*
X123917630Y-31207830D01*
X123616455Y-31139089D01*
X123616437Y-31139086D01*
X123309471Y-31104500D01*
X123309465Y-31104500D01*
X93446413Y-31104500D01*
X93403080Y-31096682D01*
X93360046Y-31080631D01*
X93360042Y-31080630D01*
X93360039Y-31080629D01*
X93080433Y-31019804D01*
X92866450Y-31004500D01*
X92866448Y-31004500D01*
X91023552Y-31004500D01*
X91023549Y-31004500D01*
X90809566Y-31019804D01*
X90529960Y-31080629D01*
X90529955Y-31080630D01*
X90529954Y-31080631D01*
X90486920Y-31096682D01*
X90443587Y-31104500D01*
X72830528Y-31104500D01*
X72523562Y-31139086D01*
X72523544Y-31139089D01*
X72222369Y-31207830D01*
X72222363Y-31207832D01*
X72146779Y-31234279D01*
X72006354Y-31283416D01*
X72006352Y-31283416D01*
X71930775Y-31309862D01*
X71652437Y-31443903D01*
X71390858Y-31608264D01*
X71149326Y-31800879D01*
X69300879Y-33649326D01*
X69108264Y-33890858D01*
X68943900Y-34152440D01*
X68808854Y-34432868D01*
X68807566Y-34437339D01*
X68707832Y-34722362D01*
X68707831Y-34722364D01*
X68639089Y-35023544D01*
X68639086Y-35023562D01*
X68604500Y-35330528D01*
X55000000Y-35330528D01*
X55000000Y-30124000D01*
X55019685Y-30056961D01*
X55072489Y-30011206D01*
X55124000Y-30000000D01*
X174876000Y-30000000D01*
X174943039Y-30019685D01*
G37*
%TD.AperFunction*%
%TD*%
%TA.AperFunction,NonConductor*%
G36*
X150472382Y-54815185D02*
G01*
X150518137Y-54867989D01*
X150528081Y-54937147D01*
X150499056Y-55000703D01*
X150493024Y-55007181D01*
X148907181Y-56593024D01*
X148845858Y-56626509D01*
X148776166Y-56621525D01*
X148720233Y-56579653D01*
X148695816Y-56514189D01*
X148695500Y-56505343D01*
X148695500Y-54919500D01*
X148715185Y-54852461D01*
X148767989Y-54806706D01*
X148819500Y-54795500D01*
X150405343Y-54795500D01*
X150472382Y-54815185D01*
G37*
%TD.AperFunction*%
%TA.AperFunction,NonConductor*%
G36*
X140763596Y-50315185D02*
G01*
X140809351Y-50367989D01*
X140819295Y-50437147D01*
X140808277Y-50473302D01*
X140799868Y-50490762D01*
X140799864Y-50490771D01*
X140780713Y-50545498D01*
X140780714Y-50545499D01*
X140697832Y-50782362D01*
X140697831Y-50782364D01*
X140629089Y-51083544D01*
X140629086Y-51083562D01*
X140594500Y-51390528D01*
X140594500Y-62254343D01*
X140574815Y-62321382D01*
X140558185Y-62342019D01*
X140412023Y-62488182D01*
X140350703Y-62521666D01*
X140324344Y-62524500D01*
X140195058Y-62524500D01*
X140128019Y-62504815D01*
X140082264Y-62452011D01*
X140071268Y-62407709D01*
X140071024Y-62403516D01*
X140013365Y-62076515D01*
X139946057Y-61851691D01*
X139945688Y-61781823D01*
X139948666Y-61772795D01*
X140009369Y-61610046D01*
X140070196Y-61330428D01*
X140085500Y-61116448D01*
X140085500Y-59273552D01*
X140070196Y-59059572D01*
X140058395Y-59005325D01*
X140039782Y-58919763D01*
X140009369Y-58779954D01*
X139948666Y-58617203D01*
X139943682Y-58547512D01*
X139946057Y-58538306D01*
X140013365Y-58313485D01*
X140071024Y-57986484D01*
X140090331Y-57655000D01*
X140071024Y-57323516D01*
X140013365Y-56996515D01*
X139918133Y-56678419D01*
X139812748Y-56434111D01*
X139804271Y-56364761D01*
X139812747Y-56335891D01*
X139918133Y-56091581D01*
X140013365Y-55773485D01*
X140071024Y-55446484D01*
X140090331Y-55115000D01*
X140089833Y-55106455D01*
X140078944Y-54919500D01*
X140071024Y-54783516D01*
X140013365Y-54456515D01*
X139918133Y-54138419D01*
X139812748Y-53894111D01*
X139804271Y-53824761D01*
X139812747Y-53795891D01*
X139918133Y-53551581D01*
X140013365Y-53233485D01*
X140071024Y-52906484D01*
X140090331Y-52575000D01*
X140071024Y-52243516D01*
X140013365Y-51916515D01*
X139918133Y-51598419D01*
X139812748Y-51354111D01*
X139804271Y-51284761D01*
X139812747Y-51255891D01*
X139918133Y-51011581D01*
X140013365Y-50693485D01*
X140049109Y-50490770D01*
X140065473Y-50397968D01*
X140096500Y-50335365D01*
X140156447Y-50299474D01*
X140187589Y-50295500D01*
X140696557Y-50295500D01*
X140763596Y-50315185D01*
G37*
%TD.AperFunction*%
%TA.AperFunction,NonConductor*%
G36*
X122031383Y-36625185D02*
G01*
X122052024Y-36641818D01*
X132419326Y-47009121D01*
X132660857Y-47201735D01*
X132922435Y-47366096D01*
X132922440Y-47366099D01*
X133019440Y-47412811D01*
X133160360Y-47480674D01*
X133200771Y-47500135D01*
X133200777Y-47500137D01*
X133492352Y-47602164D01*
X133492364Y-47602168D01*
X133793548Y-47670911D01*
X133793554Y-47670911D01*
X133793562Y-47670913D01*
X133998206Y-47693970D01*
X134100529Y-47705499D01*
X134100532Y-47705500D01*
X134100535Y-47705500D01*
X134100536Y-47705500D01*
X134260500Y-47705500D01*
X134327539Y-47725185D01*
X134373294Y-47777989D01*
X134384500Y-47829500D01*
X134384500Y-48416450D01*
X134399804Y-48630433D01*
X134460631Y-48910047D01*
X134521332Y-49072795D01*
X134526316Y-49142487D01*
X134523941Y-49151691D01*
X134456636Y-49376508D01*
X134456632Y-49376523D01*
X134398977Y-49703504D01*
X134398976Y-49703515D01*
X134379669Y-50034996D01*
X134379669Y-50035003D01*
X134398976Y-50366484D01*
X134398977Y-50366495D01*
X134456631Y-50693467D01*
X134456634Y-50693481D01*
X134551866Y-51011580D01*
X134657249Y-51255886D01*
X134665727Y-51325240D01*
X134657249Y-51354114D01*
X134551866Y-51598419D01*
X134456634Y-51916518D01*
X134456631Y-51916532D01*
X134398977Y-52243504D01*
X134398976Y-52243515D01*
X134379669Y-52574996D01*
X134379669Y-52575003D01*
X134398976Y-52906484D01*
X134398977Y-52906495D01*
X134456631Y-53233467D01*
X134456634Y-53233481D01*
X134551866Y-53551580D01*
X134657249Y-53795886D01*
X134665727Y-53865240D01*
X134657249Y-53894114D01*
X134551866Y-54138419D01*
X134456634Y-54456518D01*
X134456631Y-54456532D01*
X134398977Y-54783504D01*
X134398976Y-54783515D01*
X134379669Y-55114996D01*
X134379669Y-55115003D01*
X134398976Y-55446484D01*
X134398977Y-55446495D01*
X134456631Y-55773467D01*
X134456634Y-55773481D01*
X134551866Y-56091580D01*
X134657249Y-56335886D01*
X134665727Y-56405240D01*
X134657249Y-56434114D01*
X134551866Y-56678419D01*
X134456634Y-56996518D01*
X134456631Y-56996532D01*
X134398977Y-57323504D01*
X134398976Y-57323515D01*
X134379669Y-57654996D01*
X134379669Y-57655003D01*
X134398976Y-57986484D01*
X134398977Y-57986495D01*
X134456632Y-58313476D01*
X134456634Y-58313483D01*
X134523942Y-58538306D01*
X134524311Y-58608175D01*
X134521333Y-58617203D01*
X134460631Y-58779952D01*
X134399804Y-59059566D01*
X134384500Y-59273549D01*
X134384500Y-61116450D01*
X134399804Y-61330433D01*
X134460631Y-61610047D01*
X134521332Y-61772795D01*
X134526316Y-61842487D01*
X134523941Y-61851691D01*
X134456636Y-62076508D01*
X134456632Y-62076523D01*
X134398977Y-62403504D01*
X134398976Y-62403515D01*
X134379669Y-62734996D01*
X134379669Y-62735003D01*
X134398976Y-63066484D01*
X134398977Y-63066495D01*
X134456631Y-63393467D01*
X134456634Y-63393481D01*
X134551866Y-63711580D01*
X134657249Y-63955886D01*
X134665727Y-64025240D01*
X134657249Y-64054114D01*
X134551866Y-64298419D01*
X134456634Y-64616518D01*
X134456631Y-64616532D01*
X134398977Y-64943504D01*
X134398976Y-64943515D01*
X134379669Y-65274996D01*
X134379669Y-65275003D01*
X134398976Y-65606484D01*
X134398977Y-65606495D01*
X134456631Y-65933467D01*
X134456634Y-65933481D01*
X134551866Y-66251580D01*
X134657249Y-66495886D01*
X134665727Y-66565240D01*
X134657249Y-66594114D01*
X134551866Y-66838419D01*
X134456634Y-67156518D01*
X134456631Y-67156532D01*
X134398977Y-67483504D01*
X134398976Y-67483515D01*
X134379669Y-67814996D01*
X134379669Y-67815003D01*
X134398976Y-68146484D01*
X134398977Y-68146495D01*
X134456631Y-68473467D01*
X134456634Y-68473481D01*
X134551866Y-68791580D01*
X134657249Y-69035886D01*
X134665727Y-69105240D01*
X134657249Y-69134114D01*
X134551866Y-69378419D01*
X134456634Y-69696518D01*
X134456631Y-69696532D01*
X134398977Y-70023504D01*
X134398976Y-70023515D01*
X134379669Y-70354996D01*
X134379669Y-70355003D01*
X134398976Y-70686484D01*
X134398977Y-70686495D01*
X134456632Y-71013476D01*
X134456634Y-71013483D01*
X134523942Y-71238306D01*
X134524311Y-71308175D01*
X134521333Y-71317203D01*
X134460631Y-71479952D01*
X134399804Y-71759566D01*
X134384500Y-71973549D01*
X134384500Y-73816450D01*
X134399804Y-74030433D01*
X134460631Y-74310047D01*
X134521332Y-74472795D01*
X134526316Y-74542487D01*
X134523941Y-74551691D01*
X134456636Y-74776508D01*
X134456632Y-74776523D01*
X134398977Y-75103504D01*
X134398976Y-75103515D01*
X134379669Y-75434996D01*
X134379669Y-75435003D01*
X134398976Y-75766484D01*
X134398977Y-75766495D01*
X134456631Y-76093467D01*
X134456634Y-76093481D01*
X134551866Y-76411580D01*
X134657249Y-76655886D01*
X134665727Y-76725240D01*
X134657249Y-76754114D01*
X134551866Y-76998419D01*
X134456634Y-77316518D01*
X134456631Y-77316532D01*
X134398977Y-77643504D01*
X134398976Y-77643515D01*
X134379669Y-77974996D01*
X134379669Y-77975003D01*
X134398976Y-78306484D01*
X134398977Y-78306495D01*
X134456631Y-78633467D01*
X134456634Y-78633481D01*
X134500921Y-78781410D01*
X134501290Y-78851278D01*
X134463827Y-78910255D01*
X134400426Y-78939616D01*
X134331215Y-78930038D01*
X134294449Y-78904654D01*
X128770673Y-73380879D01*
X128709334Y-73331963D01*
X128529143Y-73188265D01*
X128267565Y-73023904D01*
X128267562Y-73023902D01*
X127989231Y-72889865D01*
X127862441Y-72845500D01*
X127862441Y-72845499D01*
X127862439Y-72845499D01*
X127697647Y-72787835D01*
X127697635Y-72787831D01*
X127396455Y-72719089D01*
X127396437Y-72719086D01*
X127089471Y-72684500D01*
X127089465Y-72684500D01*
X122429500Y-72684500D01*
X122362461Y-72664815D01*
X122316706Y-72612011D01*
X122305500Y-72560500D01*
X122305500Y-71973552D01*
X122290196Y-71759572D01*
X122229369Y-71479954D01*
X122168666Y-71317203D01*
X122163682Y-71247512D01*
X122166057Y-71238306D01*
X122233365Y-71013485D01*
X122291024Y-70686484D01*
X122310331Y-70355000D01*
X122309748Y-70344996D01*
X122301334Y-70200528D01*
X122291024Y-70023516D01*
X122268106Y-69893544D01*
X122233368Y-69696532D01*
X122233367Y-69696531D01*
X122233365Y-69696515D01*
X122138133Y-69378419D01*
X122032748Y-69134111D01*
X122024271Y-69064761D01*
X122032747Y-69035891D01*
X122138133Y-68791581D01*
X122233365Y-68473485D01*
X122291024Y-68146484D01*
X122310331Y-67815000D01*
X122309748Y-67804996D01*
X122299575Y-67630331D01*
X122291024Y-67483516D01*
X122289650Y-67475726D01*
X122233368Y-67156532D01*
X122233367Y-67156531D01*
X122233365Y-67156515D01*
X122138133Y-66838419D01*
X122032748Y-66594111D01*
X122024271Y-66524761D01*
X122032747Y-66495891D01*
X122138133Y-66251581D01*
X122233365Y-65933485D01*
X122291024Y-65606484D01*
X122310331Y-65275000D01*
X122291024Y-64943516D01*
X122233365Y-64616515D01*
X122138133Y-64298419D01*
X122032748Y-64054111D01*
X122024271Y-63984761D01*
X122032747Y-63955891D01*
X122138133Y-63711581D01*
X122233365Y-63393485D01*
X122291024Y-63066484D01*
X122310331Y-62735000D01*
X122291024Y-62403516D01*
X122233365Y-62076515D01*
X122166057Y-61851691D01*
X122165688Y-61781823D01*
X122168666Y-61772795D01*
X122229369Y-61610046D01*
X122290196Y-61330428D01*
X122305500Y-61116448D01*
X122305500Y-59273552D01*
X122290196Y-59059572D01*
X122278395Y-59005325D01*
X122259782Y-58919763D01*
X122229369Y-58779954D01*
X122168666Y-58617203D01*
X122163682Y-58547512D01*
X122166057Y-58538306D01*
X122233365Y-58313485D01*
X122291024Y-57986484D01*
X122310331Y-57655000D01*
X122291024Y-57323516D01*
X122233365Y-56996515D01*
X122138133Y-56678419D01*
X122032748Y-56434111D01*
X122024271Y-56364761D01*
X122032747Y-56335891D01*
X122138133Y-56091581D01*
X122233365Y-55773485D01*
X122291024Y-55446484D01*
X122310331Y-55115000D01*
X122309833Y-55106455D01*
X122298944Y-54919500D01*
X122291024Y-54783516D01*
X122233365Y-54456515D01*
X122138133Y-54138419D01*
X122032748Y-53894111D01*
X122024271Y-53824761D01*
X122032747Y-53795891D01*
X122138133Y-53551581D01*
X122233365Y-53233485D01*
X122291024Y-52906484D01*
X122310331Y-52575000D01*
X122291024Y-52243516D01*
X122233365Y-51916515D01*
X122138133Y-51598419D01*
X122032748Y-51354111D01*
X122024271Y-51284761D01*
X122032747Y-51255891D01*
X122138133Y-51011581D01*
X122233365Y-50693485D01*
X122291024Y-50366484D01*
X122310331Y-50035000D01*
X122291024Y-49703516D01*
X122233365Y-49376515D01*
X122138133Y-49058419D01*
X122006617Y-48753530D01*
X121840594Y-48465970D01*
X121840593Y-48465968D01*
X121642321Y-48199643D01*
X121642314Y-48199635D01*
X121642310Y-48199629D01*
X121414447Y-47958107D01*
X121279937Y-47845240D01*
X121160089Y-47744675D01*
X121047934Y-47670910D01*
X120937991Y-47598599D01*
X120892799Y-47545316D01*
X120883588Y-47476056D01*
X120913283Y-47412811D01*
X120937989Y-47391402D01*
X121160085Y-47245327D01*
X121173698Y-47233905D01*
X121261178Y-47160500D01*
X121414447Y-47031893D01*
X121642310Y-46790371D01*
X121840594Y-46524030D01*
X122006617Y-46236470D01*
X122138133Y-45931581D01*
X122233365Y-45613485D01*
X122291024Y-45286484D01*
X122310331Y-44955000D01*
X122291024Y-44623516D01*
X122233365Y-44296515D01*
X122138133Y-43978419D01*
X122032748Y-43734111D01*
X122024271Y-43664761D01*
X122032747Y-43635891D01*
X122138133Y-43391581D01*
X122233365Y-43073485D01*
X122291024Y-42746484D01*
X122310331Y-42415000D01*
X122291024Y-42083516D01*
X122259802Y-41906447D01*
X122233367Y-41756523D01*
X122233365Y-41756516D01*
X122223830Y-41724668D01*
X122210708Y-41680837D01*
X122205500Y-41645275D01*
X122205500Y-39250532D01*
X122205499Y-39250528D01*
X122170913Y-38943562D01*
X122170910Y-38943544D01*
X122102168Y-38642364D01*
X122102164Y-38642352D01*
X122000142Y-38350790D01*
X122000139Y-38350785D01*
X122000135Y-38350771D01*
X121995372Y-38340880D01*
X121995370Y-38340875D01*
X121995370Y-38340874D01*
X121866099Y-38072440D01*
X121866096Y-38072435D01*
X121701735Y-37810857D01*
X121509121Y-37569326D01*
X120756976Y-36817181D01*
X120723491Y-36755858D01*
X120728475Y-36686166D01*
X120770347Y-36630233D01*
X120835811Y-36605816D01*
X120844657Y-36605500D01*
X121964344Y-36605500D01*
X122031383Y-36625185D01*
G37*
%TD.AperFunction*%
%TA.AperFunction,NonConductor*%
G36*
X128866250Y-122695185D02*
G01*
X128912005Y-122747989D01*
X128921949Y-122817147D01*
X128898478Y-122873810D01*
X128857775Y-122928182D01*
X128857770Y-122928190D01*
X128720635Y-123179333D01*
X128720633Y-123179339D01*
X128635680Y-123407105D01*
X128593810Y-123463036D01*
X128528346Y-123487453D01*
X128460073Y-123472601D01*
X128410668Y-123423196D01*
X128395500Y-123363769D01*
X128395500Y-122799500D01*
X128415185Y-122732461D01*
X128467989Y-122686706D01*
X128519500Y-122675500D01*
X128799211Y-122675500D01*
X128866250Y-122695185D01*
G37*
%TD.AperFunction*%
M02*
